<svg width="2775" height="2809" viewBox="0 0 2775 2809" fill="none" xmlns="http://www.w3.org/2000/svg">
<circle cx="928" cy="79" r="50" fill="#D9D9D9"/>
<circle cx="699" cy="316" r="50" fill="#D9D9D9"/>
<ellipse cx="511.5" cy="545" rx="45.5" ry="45" fill="#D9D9D9"/>
<ellipse cx="1347.5" cy="552" rx="45.5" ry="45" fill="#D9D9D9"/>
<ellipse cx="1217.5" cy="790" rx="45.5" ry="45" fill="#D9D9D9"/>
<ellipse cx="1108.5" cy="1034" rx="45.5" ry="45" fill="#D9D9D9"/>
<ellipse cx="311.5" cy="778" rx="45.5" ry="45" fill="#D9D9D9"/>
<circle cx="183" cy="1023" r="50" fill="#D9D9D9"/>
<circle cx="687" cy="1036" r="50" fill="#D9D9D9"/>
<circle cx="979" cy="1284" r="50" fill="#D9D9D9"/>
<circle cx="1936" cy="1730" r="50" fill="#D9D9D9"/>
<circle cx="2069" cy="1986" r="50" fill="#D9D9D9"/>
<circle cx="2202" cy="2236" r="50" fill="#D9D9D9"/>
<circle cx="2335" cy="2497" r="50" fill="#D9D9D9"/>
<circle cx="2468" cy="2759" r="50" fill="#D9D9D9"/>
<circle cx="1447" cy="1034" r="50" fill="#D9D9D9"/>
<circle cx="1731" cy="1257" r="50" fill="#D9D9D9"/>
<circle cx="1997" cy="999" r="50" fill="#D9D9D9"/>
<circle cx="1644" cy="1508" r="50" fill="#D9D9D9"/>
<circle cx="2125" cy="1220" r="50" fill="#D9D9D9"/>
<circle cx="2053" cy="1468" r="50" fill="#D9D9D9"/>
<circle cx="822" cy="790" r="50" fill="#D9D9D9"/>
<circle cx="50" cy="1269" r="50" fill="#D9D9D9"/>
<circle cx="357" cy="1269" r="50" fill="#D9D9D9"/>
<circle cx="270" cy="1505" r="50" fill="#D9D9D9"/>
<circle cx="522" cy="1505" r="50" fill="#D9D9D9"/>
<circle cx="1724" cy="781" r="50" fill="#D9D9D9"/>
<circle cx="1723" cy="1020" r="50" fill="#D9D9D9"/>
<circle cx="1529" cy="318" r="50" fill="#D9D9D9"/>
<circle cx="881.5" cy="549.5" r="45.5" fill="#D9D9D9"/>
<circle cx="1727.5" cy="554.5" r="45.5" fill="#D9D9D9"/>
<circle cx="1521.5" cy="791.5" r="45.5" fill="#D9D9D9"/>
<circle cx="2221.9" cy="987.5" r="45.5" fill="#D9D9D9"/>
<circle cx="2034.9" cy="755.5" r="45.5" fill="#D9D9D9"/>
<circle cx="1309.5" cy="1035.5" r="45.5" fill="#D9D9D9"/>
<circle cx="681.5" cy="782.5" r="45.5" fill="#D9D9D9"/>
<circle cx="1062.9" cy="782.5" r="45.5" fill="#D9D9D9"/>
<circle cx="440" cy="1022" r="50" fill="#D9D9D9"/>
<circle cx="944" cy="1035" r="50" fill="#D9D9D9"/>
<circle cx="1236" cy="1283" r="50" fill="#D9D9D9"/>
<circle cx="2193" cy="1729" r="50" fill="#D9D9D9"/>
<circle cx="2326" cy="1985" r="50" fill="#D9D9D9"/>
<circle cx="2459" cy="2235" r="50" fill="#D9D9D9"/>
<circle cx="2592" cy="2496" r="50" fill="#D9D9D9"/>
<circle cx="2725" cy="2758" r="50" fill="#D9D9D9"/>
<circle cx="1575" cy="1029" r="50" fill="#D9D9D9"/>
<circle cx="1780" cy="1500" r="50" fill="#D9D9D9"/>
<circle cx="1840" cy="1023" r="50" fill="#D9D9D9"/>
<circle cx="1937" cy="1256" r="50" fill="#D9D9D9"/>
<circle cx="2316" cy="1231" r="50" fill="#D9D9D9"/>
<circle cx="224" cy="1269" r="50" fill="#D9D9D9"/>
<circle cx="531" cy="1269" r="50" fill="#D9D9D9"/>
<circle cx="398" cy="1505" r="50" fill="#D9D9D9"/>
<circle cx="651" cy="1505" r="50" fill="#D9D9D9"/>
<path d="M733.5 277.055C733.531 278.988 735.122 280.53 737.055 280.5L768.551 280.003C770.484 279.972 772.026 278.381 771.996 276.448C771.965 274.515 770.374 272.973 768.441 273.004L740.444 273.445L740.003 245.449C739.972 243.516 738.381 241.974 736.448 242.004C734.515 242.035 732.973 243.626 733.004 245.559L733.5 277.055ZM890.486 113.564L734.486 274.564L739.514 279.436L895.514 118.436L890.486 113.564Z" fill="black"/>
<path d="M535.423 506.049C535.456 508.157 536.892 509.845 538.632 509.818L566.973 509.379C568.712 509.352 570.095 507.621 570.063 505.512C570.03 503.404 568.594 501.716 566.855 501.743L541.662 502.133L541.189 471.588C541.157 469.48 539.72 467.792 537.981 467.819C536.242 467.846 534.859 469.577 534.891 471.686L535.423 506.049ZM664.955 342.335L536.304 503.335L540.841 508.665L669.492 347.665L664.955 342.335Z" fill="black"/>
<path d="M1370.85 516.049C1370.88 518.157 1372.32 519.845 1374.06 519.818L1402.4 519.379C1404.14 519.352 1405.52 517.621 1405.49 515.512C1405.46 513.404 1404.02 511.716 1402.28 511.743L1377.09 512.133L1376.62 481.588C1376.58 479.48 1375.15 477.792 1373.41 477.819C1371.67 477.846 1370.29 479.577 1370.32 481.686L1370.85 516.049ZM1500.38 352.335L1371.73 513.335L1376.27 518.665L1504.92 357.665L1500.38 352.335Z" fill="black"/>
<path d="M1244.71 746.184C1245.36 748.003 1247.37 748.948 1249.18 748.293L1278.83 737.633C1280.64 736.979 1281.59 734.974 1280.93 733.155C1280.28 731.336 1278.28 730.392 1276.46 731.046L1250.11 740.522L1240.63 714.174C1239.98 712.355 1237.97 711.411 1236.16 712.065C1234.34 712.719 1233.39 714.724 1234.05 716.543L1244.71 746.184ZM1317.83 588.509L1244.83 743.509L1251.17 746.491L1324.17 591.491L1317.83 588.509Z" fill="black"/>
<path d="M1135.71 990.184C1136.36 992.003 1138.37 992.948 1140.18 992.293L1169.83 981.633C1171.64 980.979 1172.59 978.974 1171.93 977.155C1171.28 975.336 1169.28 974.392 1167.46 975.046L1141.11 984.522L1131.63 958.174C1130.98 956.355 1128.97 955.411 1127.16 956.065C1125.34 956.719 1124.39 958.724 1125.05 960.543L1135.71 990.184ZM1208.83 832.509L1135.83 987.509L1142.17 990.491L1215.17 835.491L1208.83 832.509Z" fill="black"/>
<path d="M335.423 739.049C335.456 741.157 336.892 742.845 338.632 742.818L366.973 742.379C368.712 742.352 370.095 740.621 370.063 738.512C370.03 736.404 368.594 734.716 366.855 734.743L341.662 735.133L341.189 704.588C341.157 702.48 339.72 700.792 337.981 700.819C336.242 700.846 334.859 702.577 334.891 704.686L335.423 739.049ZM464.955 575.335L336.304 736.335L340.841 741.665L469.492 580.665L464.955 575.335Z" fill="black"/>
<path d="M194.675 972.034C194.707 974.397 195.847 976.297 197.221 976.278L219.614 975.971C220.988 975.953 222.076 974.022 222.043 971.659C222.011 969.296 220.871 967.396 219.497 967.415L199.592 967.687L199.123 933.46C199.091 931.097 197.95 929.197 196.576 929.216C195.202 929.235 194.114 931.165 194.147 933.528L194.675 972.034ZM286.06 807.999L195.362 968.999L198.964 975.001L289.661 814.001L286.06 807.999Z" fill="black"/>
<path d="M698.675 985.034C698.707 987.397 699.847 989.297 701.221 989.278L723.614 988.971C724.988 988.953 726.076 987.022 726.043 984.659C726.011 982.296 724.871 980.396 723.497 980.415L703.592 980.687L703.123 946.46C703.091 944.097 701.95 942.197 700.576 942.216C699.202 942.235 698.114 944.165 698.147 946.528L698.675 985.034ZM790.06 820.999L699.362 981.999L702.964 988.001L793.661 827.001L790.06 820.999Z" fill="black"/>
<path d="M990.675 1233.03C990.707 1235.4 991.847 1237.3 993.221 1237.28L1015.61 1236.97C1016.99 1236.95 1018.08 1235.02 1018.04 1232.66C1018.01 1230.3 1016.87 1228.4 1015.5 1228.41L995.592 1228.69L995.123 1194.46C995.091 1192.1 993.95 1190.2 992.576 1190.22C991.202 1190.23 990.114 1192.17 990.147 1194.53L990.675 1233.03ZM1082.06 1069L991.362 1230L994.964 1236L1085.66 1075L1082.06 1069Z" fill="black"/>
<path d="M1947.67 1679.03C1947.71 1681.4 1948.85 1683.3 1950.22 1683.28L1972.61 1682.97C1973.99 1682.95 1975.08 1681.02 1975.04 1678.66C1975.01 1676.3 1973.87 1674.4 1972.5 1674.41L1952.59 1674.69L1952.12 1640.46C1952.09 1638.1 1950.95 1636.2 1949.58 1636.22C1948.2 1636.23 1947.11 1638.17 1947.15 1640.53L1947.67 1679.03ZM2039.06 1515L1948.36 1676L1951.96 1682L2042.66 1521L2039.06 1515Z" fill="black"/>
<path d="M2080.67 1935.03C2080.71 1937.4 2081.85 1939.3 2083.22 1939.28L2105.61 1938.97C2106.99 1938.95 2108.08 1937.02 2108.04 1934.66C2108.01 1932.3 2106.87 1930.4 2105.5 1930.41L2085.59 1930.69L2085.12 1896.46C2085.09 1894.1 2083.95 1892.2 2082.58 1892.22C2081.2 1892.23 2080.11 1894.17 2080.15 1896.53L2080.67 1935.03ZM2172.06 1771L2081.36 1932L2084.96 1938L2175.66 1777L2172.06 1771Z" fill="black"/>
<path d="M2213.67 2185.03C2213.71 2187.4 2214.85 2189.3 2216.22 2189.28L2238.61 2188.97C2239.99 2188.95 2241.08 2187.02 2241.04 2184.66C2241.01 2182.3 2239.87 2180.4 2238.5 2180.41L2218.59 2180.69L2218.12 2146.46C2218.09 2144.1 2216.95 2142.2 2215.58 2142.22C2214.2 2142.23 2213.11 2144.17 2213.15 2146.53L2213.67 2185.03ZM2305.06 2021L2214.36 2182L2217.96 2188L2308.66 2027L2305.06 2021Z" fill="black"/>
<path d="M2346.67 2446.03C2346.71 2448.4 2347.85 2450.3 2349.22 2450.28L2371.61 2449.97C2372.99 2449.95 2374.08 2448.02 2374.04 2445.66C2374.01 2443.3 2372.87 2441.4 2371.5 2441.41L2351.59 2441.69L2351.12 2407.46C2351.09 2405.1 2349.95 2403.2 2348.58 2403.22C2347.2 2403.23 2346.11 2405.17 2346.15 2407.53L2346.67 2446.03ZM2438.06 2282L2347.36 2443L2350.96 2449L2441.66 2288L2438.06 2282Z" fill="black"/>
<path d="M2479.67 2708.03C2479.71 2710.4 2480.85 2712.3 2482.22 2712.28L2504.61 2711.97C2505.99 2711.95 2507.08 2710.02 2507.04 2707.66C2507.01 2705.3 2505.87 2703.4 2504.5 2703.41L2484.59 2703.69L2484.12 2669.46C2484.09 2667.1 2482.95 2665.2 2481.58 2665.22C2480.2 2665.23 2479.11 2667.17 2479.15 2669.53L2479.67 2708.03ZM2571.06 2544L2480.36 2705L2483.96 2711L2574.66 2550L2571.06 2544Z" fill="black"/>
<path d="M1472.82 971.467C1473.63 973.222 1475.71 973.988 1477.47 973.178L1506.07 959.977C1507.82 959.167 1508.59 957.088 1507.78 955.333C1506.97 953.578 1504.89 952.812 1503.13 953.622L1477.71 965.355L1465.98 939.933C1465.17 938.177 1463.09 937.411 1461.33 938.221C1459.58 939.031 1458.81 941.111 1459.62 942.866L1472.82 971.467ZM1521.72 835.79L1472.72 968.79L1479.28 971.21L1528.28 838.21L1521.72 835.79Z" fill="black"/>
<path d="M1756.82 1194.47C1757.63 1196.22 1759.71 1196.99 1761.47 1196.18L1790.07 1182.98C1791.82 1182.17 1792.59 1180.09 1791.78 1178.33C1790.97 1176.58 1788.89 1175.81 1787.13 1176.62L1761.71 1188.36L1749.98 1162.93C1749.17 1161.18 1747.09 1160.41 1745.33 1161.22C1743.58 1162.03 1742.81 1164.11 1743.62 1165.87L1756.82 1194.47ZM1805.72 1058.79L1756.72 1191.79L1763.28 1194.21L1812.28 1061.21L1805.72 1058.79Z" fill="black"/>
<path d="M2006.15 938.038C2007.28 939.609 2009.47 939.971 2011.04 938.845L2036.65 920.504C2038.22 919.378 2038.58 917.192 2037.45 915.62C2036.33 914.049 2034.14 913.687 2032.57 914.813L2009.81 931.117L1993.5 908.353C1992.38 906.781 1990.19 906.42 1988.62 907.545C1987.05 908.671 1986.69 910.857 1987.81 912.429L2006.15 938.038ZM2026.55 808.429L2005.55 935.429L2012.45 936.571L2033.45 809.571L2026.55 808.429Z" fill="black"/>
<path d="M1669.82 1445.47C1670.63 1447.22 1672.71 1447.99 1674.47 1447.18L1703.07 1433.98C1704.82 1433.17 1705.59 1431.09 1704.78 1429.33C1703.97 1427.58 1701.89 1426.81 1700.13 1427.62L1674.71 1439.36L1662.98 1413.93C1662.17 1412.18 1660.09 1411.41 1658.33 1412.22C1656.58 1413.03 1655.81 1415.11 1656.62 1416.87L1669.82 1445.47ZM1718.72 1309.79L1669.72 1442.79L1676.28 1445.21L1725.28 1312.21L1718.72 1309.79Z" fill="black"/>
<path d="M2150.82 1157.47C2151.63 1159.22 2153.71 1159.99 2155.47 1159.18L2184.07 1145.98C2185.82 1145.17 2186.59 1143.09 2185.78 1141.33C2184.97 1139.58 2182.89 1138.81 2181.13 1139.62L2155.71 1151.36L2143.98 1125.93C2143.17 1124.18 2141.09 1123.41 2139.33 1124.22C2137.58 1125.03 2136.81 1127.11 2137.62 1128.87L2150.82 1157.47ZM2199.72 1021.79L2150.72 1154.79L2157.28 1157.21L2206.28 1024.21L2199.72 1021.79Z" fill="black"/>
<path d="M2078.82 1405.47C2079.63 1407.22 2081.71 1407.99 2083.47 1407.18L2112.07 1393.98C2113.82 1393.17 2114.59 1391.09 2113.78 1389.33C2112.97 1387.58 2110.89 1386.81 2109.13 1387.62L2083.71 1399.36L2071.98 1373.93C2071.17 1372.18 2069.09 1371.41 2067.33 1372.22C2065.58 1373.03 2064.81 1375.11 2065.62 1376.87L2078.82 1405.47ZM2127.72 1269.79L2078.72 1402.79L2085.28 1405.21L2134.28 1272.21L2127.72 1269.79Z" fill="black"/>
<path d="M833.002 741.806C833.999 743.461 836.15 743.995 837.806 742.998L864.79 726.748C866.446 725.751 866.98 723.6 865.983 721.944C864.986 720.288 862.835 719.754 861.179 720.751L837.193 735.196L822.748 711.21C821.751 709.554 819.6 709.02 817.944 710.017C816.288 711.014 815.754 713.165 816.751 714.821L833.002 741.806ZM868.603 594.157L832.603 739.157L839.397 740.843L875.397 595.843L868.603 594.157Z" fill="black"/>
<path d="M61.6747 1218.03C61.7071 1220.4 62.8473 1222.3 64.2214 1222.28L86.6141 1221.97C87.9882 1221.95 89.0759 1220.02 89.0435 1217.66C89.0111 1215.3 87.8709 1213.4 86.4968 1213.41L66.5922 1213.69L66.123 1179.46C66.0906 1177.1 64.9504 1175.2 63.5763 1175.22C62.2022 1175.23 61.1145 1177.17 61.1469 1179.53L61.6747 1218.03ZM153.06 1054L62.362 1215L65.9636 1221L156.661 1060L153.06 1054Z" fill="black"/>
<path d="M368.027 1219.56C368.886 1221.29 370.987 1221.99 372.718 1221.14L400.937 1207.14C402.668 1206.28 403.376 1204.18 402.516 1202.45C401.657 1200.71 399.557 1200.01 397.826 1200.87L372.743 1213.31L360.299 1188.23C359.44 1186.49 357.34 1185.79 355.608 1186.65C353.877 1187.51 353.169 1189.61 354.028 1191.34L368.027 1219.56ZM416.683 1071.88L367.846 1216.88L374.48 1219.12L423.317 1074.12L416.683 1071.88Z" fill="black"/>
<path d="M281.027 1455.56C281.886 1457.29 283.987 1457.99 285.718 1457.14L313.937 1443.14C315.668 1442.28 316.376 1440.18 315.516 1438.45C314.657 1436.71 312.557 1436.01 310.826 1436.87L285.743 1449.31L273.299 1424.23C272.44 1422.49 270.34 1421.79 268.608 1422.65C266.877 1423.51 266.169 1425.61 267.028 1427.34L281.027 1455.56ZM329.683 1307.88L280.846 1452.88L287.48 1455.12L336.317 1310.12L329.683 1307.88Z" fill="black"/>
<path d="M525.525 1456.47C526.892 1457.84 529.108 1457.84 530.475 1456.47L552.749 1434.2C554.116 1432.83 554.116 1430.62 552.749 1429.25C551.382 1427.88 549.166 1427.88 547.799 1429.25L528 1449.05L508.201 1429.25C506.834 1427.88 504.618 1427.88 503.251 1429.25C501.884 1430.62 501.884 1432.83 503.251 1434.2L525.525 1456.47ZM524.5 1319L524.5 1454L531.5 1454L531.5 1319L524.5 1319Z" fill="black"/>
<path d="M1727.53 732.475C1728.89 733.842 1731.11 733.842 1732.47 732.475L1754.75 710.201C1756.12 708.834 1756.12 706.618 1754.75 705.251C1753.38 703.884 1751.17 703.884 1749.8 705.251L1730 725.05L1710.2 705.251C1708.83 703.884 1706.62 703.884 1705.25 705.251C1703.88 706.618 1703.88 708.834 1705.25 710.201L1727.53 732.475ZM1726.5 595L1726.5 730L1733.5 730L1733.5 595L1726.5 595Z" fill="black"/>
<path d="M1726.53 971.475C1727.89 972.842 1730.11 972.842 1731.47 971.475L1753.75 949.201C1755.12 947.834 1755.12 945.618 1753.75 944.251C1752.38 942.884 1750.17 942.884 1748.8 944.251L1729 964.05L1709.2 944.251C1707.83 942.884 1705.62 942.884 1704.25 944.251C1702.88 945.618 1702.88 947.834 1704.25 949.201L1726.53 971.475ZM1725.5 834L1725.5 969L1732.5 969L1732.5 834L1725.5 834Z" fill="black"/>
<path d="M1473.67 268.574C1475.37 267.649 1476 265.524 1475.07 263.826L1460.01 236.162C1459.08 234.464 1456.96 233.838 1455.26 234.762C1453.56 235.686 1452.94 237.812 1453.86 239.51L1467.25 264.1L1442.66 277.491C1440.96 278.415 1440.34 280.541 1441.26 282.238C1442.19 283.936 1444.31 284.563 1446.01 283.638L1473.67 268.574ZM964.01 119.357L1471.01 268.857L1472.99 262.143L965.99 112.643L964.01 119.357Z" fill="black"/>
<path d="M858.401 506.049C858.369 508.157 856.932 509.845 855.193 509.818L826.852 509.379C825.113 509.352 823.729 507.621 823.762 505.512C823.795 503.404 825.231 501.716 826.97 501.743L852.162 502.133L852.635 471.588C852.668 469.48 854.104 467.792 855.843 467.819C857.583 467.846 858.966 469.577 858.933 471.686L858.401 506.049ZM728.87 342.335L857.521 503.335L852.984 508.665L724.333 347.665L728.87 342.335Z" fill="black"/>
<path d="M1704.4 511.049C1704.37 513.157 1702.93 514.845 1701.19 514.818L1672.85 514.379C1671.11 514.352 1669.73 512.621 1669.76 510.512C1669.79 508.404 1671.23 506.716 1672.97 506.743L1698.16 507.133L1698.64 476.588C1698.67 474.48 1700.1 472.792 1701.84 472.819C1703.58 472.846 1704.97 474.577 1704.93 476.686L1704.4 511.049ZM1574.87 347.335L1703.52 508.335L1698.98 513.665L1570.33 352.665L1574.87 347.335Z" fill="black"/>
<path d="M1498.4 748.049C1498.37 750.157 1496.93 751.845 1495.19 751.818L1466.85 751.379C1465.11 751.352 1463.73 749.621 1463.76 747.512C1463.79 745.404 1465.23 743.716 1466.97 743.743L1492.16 744.133L1492.64 713.588C1492.67 711.48 1494.1 709.792 1495.84 709.819C1497.58 709.846 1498.97 711.577 1498.93 713.686L1498.4 748.049ZM1368.87 584.335L1497.52 745.335L1492.98 750.665L1364.33 589.665L1368.87 584.335Z" fill="black"/>
<path d="M2198.8 944.049C2198.77 946.157 2197.33 947.845 2195.59 947.818L2167.25 947.379C2165.51 947.352 2164.13 945.621 2164.16 943.512C2164.19 941.404 2165.63 939.716 2167.37 939.743L2192.56 940.133L2193.03 909.588C2193.07 907.48 2194.5 905.792 2196.24 905.819C2197.98 905.846 2199.36 907.577 2199.33 909.686L2198.8 944.049ZM2069.27 780.335L2197.92 941.335L2193.38 946.665L2064.73 785.665L2069.27 780.335Z" fill="black"/>
<path d="M2009.43 715.412C2011.32 714.982 2012.49 713.105 2012.06 711.22L2005.05 680.512C2004.62 678.627 2002.74 677.449 2000.86 677.879C1998.97 678.31 1997.79 680.186 1998.22 682.071L2004.46 709.367L1977.16 715.604C1975.28 716.034 1974.1 717.911 1974.53 719.795C1974.96 721.68 1976.84 722.858 1978.72 722.428L2009.43 715.412ZM1771.14 566.964L2006.79 714.964L2010.51 709.036L1774.86 561.036L1771.14 566.964Z" fill="black"/>
<path d="M1300.31 988.064C1302 988.998 1304.13 988.384 1305.06 986.692L1320.3 959.12C1321.23 957.428 1320.62 955.299 1318.92 954.364C1317.23 953.429 1315.1 954.043 1314.17 955.735L1300.63 980.244L1276.12 966.705C1274.43 965.77 1272.3 966.384 1271.36 968.076C1270.43 969.768 1271.04 971.897 1272.74 972.832L1300.31 988.064ZM1254.24 831.97L1298.64 985.97L1305.36 984.03L1260.96 830.03L1254.24 831.97Z" fill="black"/>
<path d="M658.401 739.049C658.369 741.157 656.932 742.845 655.193 742.818L626.852 742.379C625.113 742.352 623.729 740.621 623.762 738.512C623.795 736.404 625.231 734.716 626.97 734.743L652.162 735.133L652.635 704.588C652.668 702.48 654.104 700.792 655.843 700.819C657.583 700.846 658.966 702.577 658.933 704.686L658.401 739.049ZM528.87 575.335L657.521 736.335L652.984 741.665L524.333 580.665L528.87 575.335Z" fill="black"/>
<path d="M1039.8 739.049C1039.77 741.157 1038.33 742.845 1036.59 742.818L1008.25 742.379C1006.51 742.352 1005.13 740.621 1005.16 738.512C1005.19 736.404 1006.63 734.716 1008.37 734.743L1033.56 735.133L1034.03 704.588C1034.07 702.48 1035.5 700.792 1037.24 700.819C1038.98 700.846 1040.36 702.577 1040.33 704.686L1039.8 739.049ZM910.269 575.335L1038.92 736.335L1034.38 741.665L905.731 580.665L910.269 575.335Z" fill="black"/>
<path d="M422.907 972.034C422.874 974.397 421.734 976.297 420.36 976.278L397.967 975.971C396.593 975.953 395.506 974.022 395.538 971.659C395.57 969.296 396.711 967.396 398.085 967.415L417.989 967.687L418.458 933.46C418.491 931.097 419.631 929.197 421.005 929.216C422.379 929.235 423.467 931.165 423.435 933.528L422.907 972.034ZM331.522 807.999L422.219 968.999L418.618 975.001L327.92 814.001L331.522 807.999Z" fill="black"/>
<path d="M926.907 985.034C926.874 987.397 925.734 989.297 924.36 989.278L901.967 988.971C900.593 988.953 899.506 987.022 899.538 984.659C899.57 982.296 900.711 980.396 902.085 980.415L921.989 980.687L922.458 946.46C922.491 944.097 923.631 942.197 925.005 942.216C926.379 942.235 927.467 944.165 927.435 946.528L926.907 985.034ZM835.522 820.999L926.219 981.999L922.618 988.001L831.92 827.001L835.522 820.999Z" fill="black"/>
<path d="M1218.91 1233.03C1218.87 1235.4 1217.73 1237.3 1216.36 1237.28L1193.97 1236.97C1192.59 1236.95 1191.51 1235.02 1191.54 1232.66C1191.57 1230.3 1192.71 1228.4 1194.08 1228.41L1213.99 1228.69L1214.46 1194.46C1214.49 1192.1 1215.63 1190.2 1217.01 1190.22C1218.38 1190.23 1219.47 1192.17 1219.43 1194.53L1218.91 1233.03ZM1127.52 1069L1218.22 1230L1214.62 1236L1123.92 1075L1127.52 1069Z" fill="black"/>
<path d="M2175.91 1679.03C2175.87 1681.4 2174.73 1683.3 2173.36 1683.28L2150.97 1682.97C2149.59 1682.95 2148.51 1681.02 2148.54 1678.66C2148.57 1676.3 2149.71 1674.4 2151.08 1674.41L2170.99 1674.69L2171.46 1640.46C2171.49 1638.1 2172.63 1636.2 2174.01 1636.22C2175.38 1636.23 2176.47 1638.17 2176.43 1640.53L2175.91 1679.03ZM2084.52 1515L2175.22 1676L2171.62 1682L2080.92 1521L2084.52 1515Z" fill="black"/>
<path d="M2308.91 1935.03C2308.87 1937.4 2307.73 1939.3 2306.36 1939.28L2283.97 1938.97C2282.59 1938.95 2281.51 1937.02 2281.54 1934.66C2281.57 1932.3 2282.71 1930.4 2284.08 1930.41L2303.99 1930.69L2304.46 1896.46C2304.49 1894.1 2305.63 1892.2 2307.01 1892.22C2308.38 1892.23 2309.47 1894.17 2309.43 1896.53L2308.91 1935.03ZM2217.52 1771L2308.22 1932L2304.62 1938L2213.92 1777L2217.52 1771Z" fill="black"/>
<path d="M2441.91 2185.03C2441.87 2187.4 2440.73 2189.3 2439.36 2189.28L2416.97 2188.97C2415.59 2188.95 2414.51 2187.02 2414.54 2184.66C2414.57 2182.3 2415.71 2180.4 2417.08 2180.41L2436.99 2180.69L2437.46 2146.46C2437.49 2144.1 2438.63 2142.2 2440.01 2142.22C2441.38 2142.23 2442.47 2144.17 2442.43 2146.53L2441.91 2185.03ZM2350.52 2021L2441.22 2182L2437.62 2188L2346.92 2027L2350.52 2021Z" fill="black"/>
<path d="M2574.91 2446.03C2574.87 2448.4 2573.73 2450.3 2572.36 2450.28L2549.97 2449.97C2548.59 2449.95 2547.51 2448.02 2547.54 2445.66C2547.57 2443.3 2548.71 2441.4 2550.08 2441.41L2569.99 2441.69L2570.46 2407.46C2570.49 2405.1 2571.63 2403.2 2573.01 2403.22C2574.38 2403.23 2575.47 2405.17 2575.43 2407.53L2574.91 2446.03ZM2483.52 2282L2574.22 2443L2570.62 2449L2479.92 2288L2483.52 2282Z" fill="black"/>
<path d="M2707.91 2708.03C2707.87 2710.4 2706.73 2712.3 2705.36 2712.28L2682.97 2711.97C2681.59 2711.95 2680.51 2710.02 2680.54 2707.66C2680.57 2705.3 2681.71 2703.4 2683.08 2703.41L2702.99 2703.69L2703.46 2669.46C2703.49 2667.1 2704.63 2665.2 2706.01 2665.22C2707.38 2665.23 2708.47 2667.17 2708.43 2669.53L2707.91 2708.03ZM2616.52 2544L2707.22 2705L2703.62 2711L2612.92 2550L2616.52 2544Z" fill="black"/>
<path d="M1572.85 972.763C1574.38 973.949 1576.58 973.675 1577.76 972.149L1597.1 947.284C1598.29 945.758 1598.01 943.559 1596.49 942.373C1594.96 941.186 1592.76 941.461 1591.58 942.987L1574.39 965.088L1552.28 947.898C1550.76 946.711 1548.56 946.986 1547.37 948.512C1546.19 950.038 1546.46 952.237 1547.99 953.424L1572.85 972.763ZM1552.53 818.434L1571.53 970.434L1578.47 969.566L1559.47 817.566L1552.53 818.434Z" fill="black"/>
<path d="M1777.85 1443.76C1779.38 1444.95 1781.58 1444.67 1782.76 1443.15L1802.1 1418.28C1803.29 1416.76 1803.01 1414.56 1801.49 1413.37C1799.96 1412.19 1797.76 1412.46 1796.58 1413.99L1779.39 1436.09L1757.28 1418.9C1755.76 1417.71 1753.56 1417.99 1752.37 1419.51C1751.19 1421.04 1751.46 1423.24 1752.99 1424.42L1777.85 1443.76ZM1757.53 1289.43L1776.53 1441.43L1783.47 1440.57L1764.47 1288.57L1757.53 1289.43Z" fill="black"/>
<path d="M1838.77 967.275C1840.57 967.957 1842.59 967.043 1843.28 965.234L1854.38 935.756C1855.06 933.948 1854.15 931.929 1852.34 931.247C1850.53 930.566 1848.51 931.48 1847.83 933.289L1837.96 959.491L1811.76 949.619C1809.95 948.938 1807.93 949.852 1807.25 951.661C1806.57 953.469 1807.48 955.488 1809.29 956.17L1838.77 967.275ZM1769.81 817.443L1836.81 965.443L1843.19 962.557L1776.19 814.557L1769.81 817.443Z" fill="black"/>
<path d="M1935.77 1200.28C1937.57 1200.96 1939.59 1200.04 1940.28 1198.23L1951.38 1168.76C1952.06 1166.95 1951.15 1164.93 1949.34 1164.25C1947.53 1163.57 1945.51 1164.48 1944.83 1166.29L1934.96 1192.49L1908.76 1182.62C1906.95 1181.94 1904.93 1182.85 1904.25 1184.66C1903.57 1186.47 1904.48 1188.49 1906.29 1189.17L1935.77 1200.28ZM1866.81 1050.44L1933.81 1198.44L1940.19 1195.56L1873.19 1047.56L1866.81 1050.44Z" fill="black"/>
<path d="M2314.77 1175.28C2316.57 1175.96 2318.59 1175.04 2319.28 1173.23L2330.38 1143.76C2331.06 1141.95 2330.15 1139.93 2328.34 1139.25C2326.53 1138.57 2324.51 1139.48 2323.83 1141.29L2313.96 1167.49L2287.76 1157.62C2285.95 1156.94 2283.93 1157.85 2283.25 1159.66C2282.57 1161.47 2283.48 1163.49 2285.29 1164.17L2314.77 1175.28ZM2245.81 1025.44L2312.81 1173.44L2319.19 1170.56L2252.19 1022.56L2245.81 1025.44Z" fill="black"/>
<path d="M212.82 1220.74C214.332 1221.94 216.534 1221.69 217.738 1220.18L237.357 1195.54C238.561 1194.02 238.311 1191.82 236.799 1190.62C235.287 1189.41 233.085 1189.66 231.881 1191.18L214.442 1213.08L192.535 1195.64C191.023 1194.44 188.821 1194.69 187.617 1196.2C186.413 1197.71 186.663 1199.92 188.176 1201.12L212.82 1220.74ZM193.243 1057.39L211.522 1218.39L218.478 1217.61L200.199 1056.61L193.243 1057.39Z" fill="black"/>
<path d="M520.504 1221.16C522.252 1221.99 524.338 1221.24 525.164 1219.5L538.625 1191.02C539.451 1189.27 538.704 1187.18 536.956 1186.36C535.208 1185.53 533.122 1186.28 532.296 1188.03L520.331 1213.34L495.016 1201.38C493.269 1200.55 491.182 1201.3 490.356 1203.04C489.53 1204.79 490.278 1206.88 492.025 1207.7L520.504 1221.16ZM465.705 1071.18L518.705 1219.18L525.295 1216.82L472.295 1068.82L465.705 1071.18Z" fill="black"/>
<path d="M375.459 1456.41C376.789 1457.81 379.004 1457.87 380.407 1456.54L403.275 1434.88C404.678 1433.55 404.738 1431.33 403.408 1429.93C402.079 1428.53 399.864 1428.47 398.46 1429.8L378.134 1449.05L358.877 1428.73C357.547 1427.32 355.332 1427.26 353.929 1428.59C352.526 1429.92 352.466 1432.14 353.795 1433.54L375.459 1456.41ZM378.501 1305.91L374.501 1453.91L381.499 1454.09L385.499 1306.09L378.501 1305.91Z" fill="black"/>
<path d="M617.504 1457.16C619.252 1457.99 621.338 1457.24 622.164 1455.5L635.625 1427.02C636.451 1425.27 635.704 1423.18 633.956 1422.36C632.208 1421.53 630.122 1422.28 629.296 1424.03L617.331 1449.34L592.016 1437.38C590.269 1436.55 588.182 1437.3 587.356 1439.04C586.53 1440.79 587.278 1442.88 589.025 1443.7L617.504 1457.16ZM562.705 1307.18L615.705 1455.18L622.295 1452.82L569.295 1304.82L562.705 1307.18Z" fill="black"/>
<path d="M785.688 190.626C782.317 190.626 779.446 189.709 777.074 187.875C774.703 186.025 772.891 183.348 771.638 179.843C770.385 176.323 769.759 172.072 769.759 167.091C769.759 162.139 770.385 157.911 771.638 154.406C772.906 150.886 774.725 148.201 777.097 146.352C779.483 144.488 782.347 143.555 785.688 143.555C789.028 143.555 791.885 144.488 794.256 146.352C796.642 148.201 798.462 150.886 799.715 154.406C800.983 157.911 801.616 162.139 801.616 167.091C801.616 172.072 800.99 176.323 799.737 179.843C798.484 183.348 796.672 186.025 794.301 187.875C791.929 189.709 789.058 190.626 785.688 190.626ZM785.688 185.705C789.028 185.705 791.624 184.094 793.473 180.872C795.322 177.651 796.247 173.057 796.247 167.091C796.247 163.124 795.822 159.745 794.972 156.956C794.137 154.167 792.929 152.042 791.348 150.58C789.782 149.119 787.895 148.388 785.688 148.388C782.376 148.388 779.789 150.021 777.924 153.287C776.06 156.539 775.128 161.14 775.128 167.091C775.128 171.058 775.545 174.429 776.381 177.203C777.216 179.977 778.417 182.088 779.983 183.534C781.564 184.981 783.465 185.705 785.688 185.705Z" fill="black"/>
<path d="M581.688 419.626C578.317 419.626 575.446 418.709 573.074 416.875C570.703 415.025 568.891 412.348 567.638 408.843C566.385 405.323 565.759 401.072 565.759 396.091C565.759 391.139 566.385 386.911 567.638 383.406C568.906 379.886 570.725 377.201 573.097 375.352C575.483 373.488 578.347 372.555 581.688 372.555C585.028 372.555 587.885 373.488 590.256 375.352C592.642 377.201 594.462 379.886 595.715 383.406C596.983 386.911 597.616 391.139 597.616 396.091C597.616 401.072 596.99 405.323 595.737 408.843C594.484 412.348 592.672 415.025 590.301 416.875C587.929 418.709 585.058 419.626 581.688 419.626ZM581.688 414.705C585.028 414.705 587.624 413.094 589.473 409.872C591.322 406.651 592.247 402.057 592.247 396.091C592.247 392.124 591.822 388.745 590.972 385.956C590.137 383.167 588.929 381.042 587.348 379.58C585.782 378.119 583.895 377.388 581.688 377.388C578.376 377.388 575.789 379.021 573.924 382.287C572.06 385.539 571.128 390.14 571.128 396.091C571.128 400.058 571.545 403.429 572.381 406.203C573.216 408.977 574.417 411.088 575.983 412.534C577.564 413.981 579.465 414.705 581.688 414.705Z" fill="black"/>
<path d="M1424.69 421.626C1421.32 421.626 1418.45 420.709 1416.07 418.875C1413.7 417.025 1411.89 414.348 1410.64 410.843C1409.38 407.323 1408.76 403.072 1408.76 398.091C1408.76 393.139 1409.38 388.911 1410.64 385.406C1411.91 381.886 1413.73 379.201 1416.1 377.352C1418.48 375.488 1421.35 374.555 1424.69 374.555C1428.03 374.555 1430.88 375.488 1433.26 377.352C1435.64 379.201 1437.46 381.886 1438.71 385.406C1439.98 388.911 1440.62 393.139 1440.62 398.091C1440.62 403.072 1439.99 407.323 1438.74 410.843C1437.48 414.348 1435.67 417.025 1433.3 418.875C1430.93 420.709 1428.06 421.626 1424.69 421.626ZM1424.69 416.705C1428.03 416.705 1430.62 415.094 1432.47 411.872C1434.32 408.651 1435.25 404.057 1435.25 398.091C1435.25 394.124 1434.82 390.745 1433.97 387.956C1433.14 385.167 1431.93 383.042 1430.35 381.58C1428.78 380.119 1426.89 379.388 1424.69 379.388C1421.38 379.388 1418.79 381.021 1416.92 384.287C1415.06 387.539 1414.13 392.14 1414.13 398.091C1414.13 402.058 1414.55 405.429 1415.38 408.203C1416.22 410.977 1417.42 413.088 1418.98 414.534C1420.56 415.981 1422.47 416.705 1424.69 416.705Z" fill="black"/>
<path d="M1218.69 658.626C1215.32 658.626 1212.45 657.709 1210.07 655.875C1207.7 654.025 1205.89 651.348 1204.64 647.843C1203.38 644.323 1202.76 640.072 1202.76 635.091C1202.76 630.139 1203.38 625.911 1204.64 622.406C1205.91 618.886 1207.73 616.201 1210.1 614.352C1212.48 612.488 1215.35 611.555 1218.69 611.555C1222.03 611.555 1224.88 612.488 1227.26 614.352C1229.64 616.201 1231.46 618.886 1232.71 622.406C1233.98 625.911 1234.62 630.139 1234.62 635.091C1234.62 640.072 1233.99 644.323 1232.74 647.843C1231.48 651.348 1229.67 654.025 1227.3 655.875C1224.93 657.709 1222.06 658.626 1218.69 658.626ZM1218.69 653.705C1222.03 653.705 1224.62 652.094 1226.47 648.872C1228.32 645.651 1229.25 641.057 1229.25 635.091C1229.25 631.124 1228.82 627.745 1227.97 624.956C1227.14 622.167 1225.93 620.042 1224.35 618.58C1222.78 617.119 1220.89 616.388 1218.69 616.388C1215.38 616.388 1212.79 618.021 1210.92 621.287C1209.06 624.539 1208.13 629.14 1208.13 635.091C1208.13 639.058 1208.55 642.429 1209.38 645.203C1210.22 647.977 1211.42 650.088 1212.98 651.534C1214.56 652.981 1216.47 653.705 1218.69 653.705Z" fill="black"/>
<path d="M1109.69 902.626C1106.32 902.626 1103.45 901.709 1101.07 899.875C1098.7 898.025 1096.89 895.348 1095.64 891.843C1094.38 888.323 1093.76 884.072 1093.76 879.091C1093.76 874.139 1094.38 869.911 1095.64 866.406C1096.91 862.886 1098.73 860.201 1101.1 858.352C1103.48 856.488 1106.35 855.555 1109.69 855.555C1113.03 855.555 1115.88 856.488 1118.26 858.352C1120.64 860.201 1122.46 862.886 1123.71 866.406C1124.98 869.911 1125.62 874.139 1125.62 879.091C1125.62 884.072 1124.99 888.323 1123.74 891.843C1122.48 895.348 1120.67 898.025 1118.3 899.875C1115.93 901.709 1113.06 902.626 1109.69 902.626ZM1109.69 897.705C1113.03 897.705 1115.62 896.094 1117.47 892.872C1119.32 889.651 1120.25 885.057 1120.25 879.091C1120.25 875.124 1119.82 871.745 1118.97 868.956C1118.14 866.167 1116.93 864.042 1115.35 862.58C1113.78 861.119 1111.89 860.388 1109.69 860.388C1106.38 860.388 1103.79 862.021 1101.92 865.287C1100.06 868.539 1099.13 873.14 1099.13 879.091C1099.13 883.058 1099.55 886.429 1100.38 889.203C1101.22 891.977 1102.42 894.088 1103.98 895.534C1105.56 896.981 1107.47 897.705 1109.69 897.705Z" fill="black"/>
<path d="M381.688 652.626C378.317 652.626 375.446 651.709 373.074 649.875C370.703 648.025 368.891 645.348 367.638 641.843C366.385 638.323 365.759 634.072 365.759 629.091C365.759 624.139 366.385 619.911 367.638 616.406C368.906 612.886 370.725 610.201 373.097 608.352C375.483 606.488 378.347 605.555 381.688 605.555C385.028 605.555 387.885 606.488 390.256 608.352C392.642 610.201 394.462 612.886 395.715 616.406C396.983 619.911 397.616 624.139 397.616 629.091C397.616 634.072 396.99 638.323 395.737 641.843C394.484 645.348 392.672 648.025 390.301 649.875C387.929 651.709 385.058 652.626 381.688 652.626ZM381.688 647.705C385.028 647.705 387.624 646.094 389.473 642.872C391.322 639.651 392.247 635.057 392.247 629.091C392.247 625.124 391.822 621.745 390.972 618.956C390.137 616.167 388.929 614.042 387.348 612.58C385.782 611.119 383.895 610.388 381.688 610.388C378.376 610.388 375.789 612.021 373.924 615.287C372.06 618.539 371.128 623.14 371.128 629.091C371.128 633.058 371.545 636.429 372.381 639.203C373.216 641.977 374.417 644.088 375.983 645.534C377.564 646.981 379.465 647.705 381.688 647.705Z" fill="black"/>
<path d="M205.688 885.626C202.317 885.626 199.446 884.709 197.074 882.875C194.703 881.025 192.891 878.348 191.638 874.843C190.385 871.323 189.759 867.072 189.759 862.091C189.759 857.139 190.385 852.911 191.638 849.406C192.906 845.886 194.725 843.201 197.097 841.352C199.483 839.488 202.347 838.555 205.688 838.555C209.028 838.555 211.885 839.488 214.256 841.352C216.642 843.201 218.462 845.886 219.715 849.406C220.983 852.911 221.616 857.139 221.616 862.091C221.616 867.072 220.99 871.323 219.737 874.843C218.484 878.348 216.672 881.025 214.301 882.875C211.929 884.709 209.058 885.626 205.688 885.626ZM205.688 880.705C209.028 880.705 211.624 879.094 213.473 875.872C215.322 872.651 216.247 868.057 216.247 862.091C216.247 858.124 215.822 854.745 214.972 851.956C214.137 849.167 212.929 847.042 211.348 845.58C209.782 844.119 207.895 843.388 205.688 843.388C202.376 843.388 199.789 845.021 197.924 848.287C196.06 851.539 195.128 856.14 195.128 862.091C195.128 866.058 195.545 869.429 196.381 872.203C197.216 874.977 198.417 877.088 199.983 878.534C201.564 879.981 203.465 880.705 205.688 880.705Z" fill="black"/>
<path d="M709.688 898.626C706.317 898.626 703.446 897.709 701.074 895.875C698.703 894.025 696.891 891.348 695.638 887.843C694.385 884.323 693.759 880.072 693.759 875.091C693.759 870.139 694.385 865.911 695.638 862.406C696.906 858.886 698.725 856.201 701.097 854.352C703.483 852.488 706.347 851.555 709.688 851.555C713.028 851.555 715.885 852.488 718.256 854.352C720.642 856.201 722.462 858.886 723.715 862.406C724.983 865.911 725.616 870.139 725.616 875.091C725.616 880.072 724.99 884.323 723.737 887.843C722.484 891.348 720.672 894.025 718.301 895.875C715.929 897.709 713.058 898.626 709.688 898.626ZM709.688 893.705C713.028 893.705 715.624 892.094 717.473 888.872C719.322 885.651 720.247 881.057 720.247 875.091C720.247 871.124 719.822 867.745 718.972 864.956C718.137 862.167 716.929 860.042 715.348 858.58C713.782 857.119 711.895 856.388 709.688 856.388C706.376 856.388 703.789 858.021 701.924 861.287C700.06 864.539 699.128 869.14 699.128 875.091C699.128 879.058 699.545 882.429 700.381 885.203C701.216 887.977 702.417 890.088 703.983 891.534C705.564 892.981 707.465 893.705 709.688 893.705Z" fill="black"/>
<path d="M1001.69 1146.63C998.317 1146.63 995.446 1145.71 993.074 1143.87C990.703 1142.03 988.891 1139.35 987.638 1135.84C986.385 1132.32 985.759 1128.07 985.759 1123.09C985.759 1118.14 986.385 1113.91 987.638 1110.41C988.906 1106.89 990.725 1104.2 993.097 1102.35C995.483 1100.49 998.347 1099.56 1001.69 1099.56C1005.03 1099.56 1007.88 1100.49 1010.26 1102.35C1012.64 1104.2 1014.46 1106.89 1015.71 1110.41C1016.98 1113.91 1017.62 1118.14 1017.62 1123.09C1017.62 1128.07 1016.99 1132.32 1015.74 1135.84C1014.48 1139.35 1012.67 1142.03 1010.3 1143.87C1007.93 1145.71 1005.06 1146.63 1001.69 1146.63ZM1001.69 1141.7C1005.03 1141.7 1007.62 1140.09 1009.47 1136.87C1011.32 1133.65 1012.25 1129.06 1012.25 1123.09C1012.25 1119.12 1011.82 1115.75 1010.97 1112.96C1010.14 1110.17 1008.93 1108.04 1007.35 1106.58C1005.78 1105.12 1003.89 1104.39 1001.69 1104.39C998.376 1104.39 995.789 1106.02 993.924 1109.29C992.06 1112.54 991.128 1117.14 991.128 1123.09C991.128 1127.06 991.545 1130.43 992.381 1133.2C993.216 1135.98 994.417 1138.09 995.983 1139.53C997.564 1140.98 999.465 1141.7 1001.69 1141.7Z" fill="black"/>
<path d="M1958.69 1592.63C1955.32 1592.63 1952.45 1591.71 1950.07 1589.87C1947.7 1588.03 1945.89 1585.35 1944.64 1581.84C1943.38 1578.32 1942.76 1574.07 1942.76 1569.09C1942.76 1564.14 1943.38 1559.91 1944.64 1556.41C1945.91 1552.89 1947.73 1550.2 1950.1 1548.35C1952.48 1546.49 1955.35 1545.56 1958.69 1545.56C1962.03 1545.56 1964.88 1546.49 1967.26 1548.35C1969.64 1550.2 1971.46 1552.89 1972.71 1556.41C1973.98 1559.91 1974.62 1564.14 1974.62 1569.09C1974.62 1574.07 1973.99 1578.32 1972.74 1581.84C1971.48 1585.35 1969.67 1588.03 1967.3 1589.87C1964.93 1591.71 1962.06 1592.63 1958.69 1592.63ZM1958.69 1587.7C1962.03 1587.7 1964.62 1586.09 1966.47 1582.87C1968.32 1579.65 1969.25 1575.06 1969.25 1569.09C1969.25 1565.12 1968.82 1561.75 1967.97 1558.96C1967.14 1556.17 1965.93 1554.04 1964.35 1552.58C1962.78 1551.12 1960.89 1550.39 1958.69 1550.39C1955.38 1550.39 1952.79 1552.02 1950.92 1555.29C1949.06 1558.54 1948.13 1563.14 1948.13 1569.09C1948.13 1573.06 1948.55 1576.43 1949.38 1579.2C1950.22 1581.98 1951.42 1584.09 1952.98 1585.53C1954.56 1586.98 1956.47 1587.7 1958.69 1587.7Z" fill="black"/>
<path d="M2091.69 1848.63C2088.32 1848.63 2085.45 1847.71 2083.07 1845.87C2080.7 1844.03 2078.89 1841.35 2077.64 1837.84C2076.38 1834.32 2075.76 1830.07 2075.76 1825.09C2075.76 1820.14 2076.38 1815.91 2077.64 1812.41C2078.91 1808.89 2080.73 1806.2 2083.1 1804.35C2085.48 1802.49 2088.35 1801.56 2091.69 1801.56C2095.03 1801.56 2097.88 1802.49 2100.26 1804.35C2102.64 1806.2 2104.46 1808.89 2105.71 1812.41C2106.98 1815.91 2107.62 1820.14 2107.62 1825.09C2107.62 1830.07 2106.99 1834.32 2105.74 1837.84C2104.48 1841.35 2102.67 1844.03 2100.3 1845.87C2097.93 1847.71 2095.06 1848.63 2091.69 1848.63ZM2091.69 1843.7C2095.03 1843.7 2097.62 1842.09 2099.47 1838.87C2101.32 1835.65 2102.25 1831.06 2102.25 1825.09C2102.25 1821.12 2101.82 1817.75 2100.97 1814.96C2100.14 1812.17 2098.93 1810.04 2097.35 1808.58C2095.78 1807.12 2093.89 1806.39 2091.69 1806.39C2088.38 1806.39 2085.79 1808.02 2083.92 1811.29C2082.06 1814.54 2081.13 1819.14 2081.13 1825.09C2081.13 1829.06 2081.55 1832.43 2082.38 1835.2C2083.22 1837.98 2084.42 1840.09 2085.98 1841.53C2087.56 1842.98 2089.47 1843.7 2091.69 1843.7Z" fill="black"/>
<path d="M2224.69 2098.63C2221.32 2098.63 2218.45 2097.71 2216.07 2095.87C2213.7 2094.03 2211.89 2091.35 2210.64 2087.84C2209.38 2084.32 2208.76 2080.07 2208.76 2075.09C2208.76 2070.14 2209.38 2065.91 2210.64 2062.41C2211.91 2058.89 2213.73 2056.2 2216.1 2054.35C2218.48 2052.49 2221.35 2051.56 2224.69 2051.56C2228.03 2051.56 2230.88 2052.49 2233.26 2054.35C2235.64 2056.2 2237.46 2058.89 2238.71 2062.41C2239.98 2065.91 2240.62 2070.14 2240.62 2075.09C2240.62 2080.07 2239.99 2084.32 2238.74 2087.84C2237.48 2091.35 2235.67 2094.03 2233.3 2095.87C2230.93 2097.71 2228.06 2098.63 2224.69 2098.63ZM2224.69 2093.7C2228.03 2093.7 2230.62 2092.09 2232.47 2088.87C2234.32 2085.65 2235.25 2081.06 2235.25 2075.09C2235.25 2071.12 2234.82 2067.75 2233.97 2064.96C2233.14 2062.17 2231.93 2060.04 2230.35 2058.58C2228.78 2057.12 2226.89 2056.39 2224.69 2056.39C2221.38 2056.39 2218.79 2058.02 2216.92 2061.29C2215.06 2064.54 2214.13 2069.14 2214.13 2075.09C2214.13 2079.06 2214.55 2082.43 2215.38 2085.2C2216.22 2087.98 2217.42 2090.09 2218.98 2091.53C2220.56 2092.98 2222.47 2093.7 2224.69 2093.7Z" fill="black"/>
<path d="M2357.69 2359.63C2354.32 2359.63 2351.45 2358.71 2349.07 2356.87C2346.7 2355.03 2344.89 2352.35 2343.64 2348.84C2342.38 2345.32 2341.76 2341.07 2341.76 2336.09C2341.76 2331.14 2342.38 2326.91 2343.64 2323.41C2344.91 2319.89 2346.73 2317.2 2349.1 2315.35C2351.48 2313.49 2354.35 2312.56 2357.69 2312.56C2361.03 2312.56 2363.88 2313.49 2366.26 2315.35C2368.64 2317.2 2370.46 2319.89 2371.71 2323.41C2372.98 2326.91 2373.62 2331.14 2373.62 2336.09C2373.62 2341.07 2372.99 2345.32 2371.74 2348.84C2370.48 2352.35 2368.67 2355.03 2366.3 2356.87C2363.93 2358.71 2361.06 2359.63 2357.69 2359.63ZM2357.69 2354.7C2361.03 2354.7 2363.62 2353.09 2365.47 2349.87C2367.32 2346.65 2368.25 2342.06 2368.25 2336.09C2368.25 2332.12 2367.82 2328.75 2366.97 2325.96C2366.14 2323.17 2364.93 2321.04 2363.35 2319.58C2361.78 2318.12 2359.89 2317.39 2357.69 2317.39C2354.38 2317.39 2351.79 2319.02 2349.92 2322.29C2348.06 2325.54 2347.13 2330.14 2347.13 2336.09C2347.13 2340.06 2347.55 2343.43 2348.38 2346.2C2349.22 2348.98 2350.42 2351.09 2351.98 2352.53C2353.56 2353.98 2355.47 2354.7 2357.69 2354.7Z" fill="black"/>
<path d="M2490.69 2621.63C2487.32 2621.63 2484.45 2620.71 2482.07 2618.87C2479.7 2617.03 2477.89 2614.35 2476.64 2610.84C2475.38 2607.32 2474.76 2603.07 2474.76 2598.09C2474.76 2593.14 2475.38 2588.91 2476.64 2585.41C2477.91 2581.89 2479.73 2579.2 2482.1 2577.35C2484.48 2575.49 2487.35 2574.56 2490.69 2574.56C2494.03 2574.56 2496.88 2575.49 2499.26 2577.35C2501.64 2579.2 2503.46 2581.89 2504.71 2585.41C2505.98 2588.91 2506.62 2593.14 2506.62 2598.09C2506.62 2603.07 2505.99 2607.32 2504.74 2610.84C2503.48 2614.35 2501.67 2617.03 2499.3 2618.87C2496.93 2620.71 2494.06 2621.63 2490.69 2621.63ZM2490.69 2616.7C2494.03 2616.7 2496.62 2615.09 2498.47 2611.87C2500.32 2608.65 2501.25 2604.06 2501.25 2598.09C2501.25 2594.12 2500.82 2590.75 2499.97 2587.96C2499.14 2585.17 2497.93 2583.04 2496.35 2581.58C2494.78 2580.12 2492.89 2579.39 2490.69 2579.39C2487.38 2579.39 2484.79 2581.02 2482.92 2584.29C2481.06 2587.54 2480.13 2592.14 2480.13 2598.09C2480.13 2602.06 2480.55 2605.43 2481.38 2608.2C2482.22 2610.98 2483.42 2613.09 2484.98 2614.53C2486.56 2615.98 2488.47 2616.7 2490.69 2616.7Z" fill="black"/>
<path d="M1459.69 921.626C1456.32 921.626 1453.45 920.709 1451.07 918.875C1448.7 917.025 1446.89 914.348 1445.64 910.843C1444.38 907.323 1443.76 903.072 1443.76 898.091C1443.76 893.139 1444.38 888.911 1445.64 885.406C1446.91 881.886 1448.73 879.201 1451.1 877.352C1453.48 875.488 1456.35 874.555 1459.69 874.555C1463.03 874.555 1465.88 875.488 1468.26 877.352C1470.64 879.201 1472.46 881.886 1473.71 885.406C1474.98 888.911 1475.62 893.139 1475.62 898.091C1475.62 903.072 1474.99 907.323 1473.74 910.843C1472.48 914.348 1470.67 917.025 1468.3 918.875C1465.93 920.709 1463.06 921.626 1459.69 921.626ZM1459.69 916.705C1463.03 916.705 1465.62 915.094 1467.47 911.872C1469.32 908.651 1470.25 904.057 1470.25 898.091C1470.25 894.124 1469.82 890.745 1468.97 887.956C1468.14 885.167 1466.93 883.042 1465.35 881.58C1463.78 880.119 1461.89 879.388 1459.69 879.388C1456.38 879.388 1453.79 881.021 1451.92 884.287C1450.06 887.539 1449.13 892.14 1449.13 898.091C1449.13 902.058 1449.55 905.429 1450.38 908.203C1451.22 910.977 1452.42 913.088 1453.98 914.534C1455.56 915.981 1457.47 916.705 1459.69 916.705Z" fill="black"/>
<path d="M1743.69 1144.63C1740.32 1144.63 1737.45 1143.71 1735.07 1141.87C1732.7 1140.03 1730.89 1137.35 1729.64 1133.84C1728.38 1130.32 1727.76 1126.07 1727.76 1121.09C1727.76 1116.14 1728.38 1111.91 1729.64 1108.41C1730.91 1104.89 1732.73 1102.2 1735.1 1100.35C1737.48 1098.49 1740.35 1097.56 1743.69 1097.56C1747.03 1097.56 1749.88 1098.49 1752.26 1100.35C1754.64 1102.2 1756.46 1104.89 1757.71 1108.41C1758.98 1111.91 1759.62 1116.14 1759.62 1121.09C1759.62 1126.07 1758.99 1130.32 1757.74 1133.84C1756.48 1137.35 1754.67 1140.03 1752.3 1141.87C1749.93 1143.71 1747.06 1144.63 1743.69 1144.63ZM1743.69 1139.7C1747.03 1139.7 1749.62 1138.09 1751.47 1134.87C1753.32 1131.65 1754.25 1127.06 1754.25 1121.09C1754.25 1117.12 1753.82 1113.75 1752.97 1110.96C1752.14 1108.17 1750.93 1106.04 1749.35 1104.58C1747.78 1103.12 1745.89 1102.39 1743.69 1102.39C1740.38 1102.39 1737.79 1104.02 1735.92 1107.29C1734.06 1110.54 1733.13 1115.14 1733.13 1121.09C1733.13 1125.06 1733.55 1128.43 1734.38 1131.2C1735.22 1133.98 1736.42 1136.09 1737.98 1137.53C1739.56 1138.98 1741.47 1139.7 1743.69 1139.7Z" fill="black"/>
<path d="M1964.69 893.626C1961.32 893.626 1958.45 892.709 1956.07 890.875C1953.7 889.025 1951.89 886.348 1950.64 882.843C1949.38 879.323 1948.76 875.072 1948.76 870.091C1948.76 865.139 1949.38 860.911 1950.64 857.406C1951.91 853.886 1953.73 851.201 1956.1 849.352C1958.48 847.488 1961.35 846.555 1964.69 846.555C1968.03 846.555 1970.88 847.488 1973.26 849.352C1975.64 851.201 1977.46 853.886 1978.71 857.406C1979.98 860.911 1980.62 865.139 1980.62 870.091C1980.62 875.072 1979.99 879.323 1978.74 882.843C1977.48 886.348 1975.67 889.025 1973.3 890.875C1970.93 892.709 1968.06 893.626 1964.69 893.626ZM1964.69 888.705C1968.03 888.705 1970.62 887.094 1972.47 883.872C1974.32 880.651 1975.25 876.057 1975.25 870.091C1975.25 866.124 1974.82 862.745 1973.97 859.956C1973.14 857.167 1971.93 855.042 1970.35 853.58C1968.78 852.119 1966.89 851.388 1964.69 851.388C1961.38 851.388 1958.79 853.021 1956.92 856.287C1955.06 859.539 1954.13 864.14 1954.13 870.091C1954.13 874.058 1954.55 877.429 1955.38 880.203C1956.22 882.977 1957.42 885.088 1958.98 886.534C1960.56 887.981 1962.47 888.705 1964.69 888.705Z" fill="black"/>
<path d="M1656.69 1395.63C1653.32 1395.63 1650.45 1394.71 1648.07 1392.87C1645.7 1391.03 1643.89 1388.35 1642.64 1384.84C1641.38 1381.32 1640.76 1377.07 1640.76 1372.09C1640.76 1367.14 1641.38 1362.91 1642.64 1359.41C1643.91 1355.89 1645.73 1353.2 1648.1 1351.35C1650.48 1349.49 1653.35 1348.56 1656.69 1348.56C1660.03 1348.56 1662.88 1349.49 1665.26 1351.35C1667.64 1353.2 1669.46 1355.89 1670.71 1359.41C1671.98 1362.91 1672.62 1367.14 1672.62 1372.09C1672.62 1377.07 1671.99 1381.32 1670.74 1384.84C1669.48 1388.35 1667.67 1391.03 1665.3 1392.87C1662.93 1394.71 1660.06 1395.63 1656.69 1395.63ZM1656.69 1390.7C1660.03 1390.7 1662.62 1389.09 1664.47 1385.87C1666.32 1382.65 1667.25 1378.06 1667.25 1372.09C1667.25 1368.12 1666.82 1364.75 1665.97 1361.96C1665.14 1359.17 1663.93 1357.04 1662.35 1355.58C1660.78 1354.12 1658.89 1353.39 1656.69 1353.39C1653.38 1353.39 1650.79 1355.02 1648.92 1358.29C1647.06 1361.54 1646.13 1366.14 1646.13 1372.09C1646.13 1376.06 1646.55 1379.43 1647.38 1382.2C1648.22 1384.98 1649.42 1387.09 1650.98 1388.53C1652.56 1389.98 1654.47 1390.7 1656.69 1390.7Z" fill="black"/>
<path d="M2137.69 1107.63C2134.32 1107.63 2131.45 1106.71 2129.07 1104.87C2126.7 1103.03 2124.89 1100.35 2123.64 1096.84C2122.38 1093.32 2121.76 1089.07 2121.76 1084.09C2121.76 1079.14 2122.38 1074.91 2123.64 1071.41C2124.91 1067.89 2126.73 1065.2 2129.1 1063.35C2131.48 1061.49 2134.35 1060.56 2137.69 1060.56C2141.03 1060.56 2143.88 1061.49 2146.26 1063.35C2148.64 1065.2 2150.46 1067.89 2151.71 1071.41C2152.98 1074.91 2153.62 1079.14 2153.62 1084.09C2153.62 1089.07 2152.99 1093.32 2151.74 1096.84C2150.48 1100.35 2148.67 1103.03 2146.3 1104.87C2143.93 1106.71 2141.06 1107.63 2137.69 1107.63ZM2137.69 1102.7C2141.03 1102.7 2143.62 1101.09 2145.47 1097.87C2147.32 1094.65 2148.25 1090.06 2148.25 1084.09C2148.25 1080.12 2147.82 1076.75 2146.97 1073.96C2146.14 1071.17 2144.93 1069.04 2143.35 1067.58C2141.78 1066.12 2139.89 1065.39 2137.69 1065.39C2134.38 1065.39 2131.79 1067.02 2129.92 1070.29C2128.06 1073.54 2127.13 1078.14 2127.13 1084.09C2127.13 1088.06 2127.55 1091.43 2128.38 1094.2C2129.22 1096.98 2130.42 1099.09 2131.98 1100.53C2133.56 1101.98 2135.47 1102.7 2137.69 1102.7Z" fill="black"/>
<path d="M2065.69 1355.63C2062.32 1355.63 2059.45 1354.71 2057.07 1352.87C2054.7 1351.03 2052.89 1348.35 2051.64 1344.84C2050.38 1341.32 2049.76 1337.07 2049.76 1332.09C2049.76 1327.14 2050.38 1322.91 2051.64 1319.41C2052.91 1315.89 2054.73 1313.2 2057.1 1311.35C2059.48 1309.49 2062.35 1308.56 2065.69 1308.56C2069.03 1308.56 2071.88 1309.49 2074.26 1311.35C2076.64 1313.2 2078.46 1315.89 2079.71 1319.41C2080.98 1322.91 2081.62 1327.14 2081.62 1332.09C2081.62 1337.07 2080.99 1341.32 2079.74 1344.84C2078.48 1348.35 2076.67 1351.03 2074.3 1352.87C2071.93 1354.71 2069.06 1355.63 2065.69 1355.63ZM2065.69 1350.7C2069.03 1350.7 2071.62 1349.09 2073.47 1345.87C2075.32 1342.65 2076.25 1338.06 2076.25 1332.09C2076.25 1328.12 2075.82 1324.75 2074.97 1321.96C2074.14 1319.17 2072.93 1317.04 2071.35 1315.58C2069.78 1314.12 2067.89 1313.39 2065.69 1313.39C2062.38 1313.39 2059.79 1315.02 2057.92 1318.29C2056.06 1321.54 2055.13 1326.14 2055.13 1332.09C2055.13 1336.06 2055.55 1339.43 2056.38 1342.2C2057.22 1344.98 2058.42 1347.09 2059.98 1348.53C2061.56 1349.98 2063.47 1350.7 2065.69 1350.7Z" fill="black"/>
<path d="M799.688 675.626C796.317 675.626 793.446 674.709 791.074 672.875C788.703 671.025 786.891 668.348 785.638 664.843C784.385 661.323 783.759 657.072 783.759 652.091C783.759 647.139 784.385 642.911 785.638 639.406C786.906 635.886 788.725 633.201 791.097 631.352C793.483 629.488 796.347 628.555 799.688 628.555C803.028 628.555 805.885 629.488 808.256 631.352C810.642 633.201 812.462 635.886 813.715 639.406C814.983 642.911 815.616 647.139 815.616 652.091C815.616 657.072 814.99 661.323 813.737 664.843C812.484 668.348 810.672 671.025 808.301 672.875C805.929 674.709 803.058 675.626 799.688 675.626ZM799.688 670.705C803.028 670.705 805.624 669.094 807.473 665.872C809.322 662.651 810.247 658.057 810.247 652.091C810.247 648.124 809.822 644.745 808.972 641.956C808.137 639.167 806.929 637.042 805.348 635.58C803.782 634.119 801.895 633.388 799.688 633.388C796.376 633.388 793.789 635.021 791.924 638.287C790.06 641.539 789.128 646.14 789.128 652.091C789.128 656.058 789.545 659.429 790.381 662.203C791.216 664.977 792.417 667.088 793.983 668.534C795.564 669.981 797.465 670.705 799.688 670.705Z" fill="black"/>
<path d="M72.6875 1131.63C69.3168 1131.63 66.4457 1130.71 64.0742 1128.87C61.7028 1127.03 59.8906 1124.35 58.6378 1120.84C57.3849 1117.32 56.7585 1113.07 56.7585 1108.09C56.7585 1103.14 57.3849 1098.91 58.6378 1095.41C59.9055 1091.89 61.7251 1089.2 64.0966 1087.35C66.483 1085.49 69.3466 1084.56 72.6875 1084.56C76.0284 1084.56 78.8846 1085.49 81.256 1087.35C83.6424 1089.2 85.462 1091.89 86.7148 1095.41C87.9826 1098.91 88.6165 1103.14 88.6165 1108.09C88.6165 1113.07 87.9901 1117.32 86.7372 1120.84C85.4844 1124.35 83.6722 1127.03 81.3008 1128.87C78.9293 1130.71 76.0582 1131.63 72.6875 1131.63ZM72.6875 1126.7C76.0284 1126.7 78.6236 1125.09 80.473 1121.87C82.3224 1118.65 83.2472 1114.06 83.2472 1108.09C83.2472 1104.12 82.8221 1100.75 81.9719 1097.96C81.1367 1095.17 79.9286 1093.04 78.3477 1091.58C76.7816 1090.12 74.8949 1089.39 72.6875 1089.39C69.3764 1089.39 66.7887 1091.02 64.9244 1094.29C63.06 1097.54 62.1278 1102.14 62.1278 1108.09C62.1278 1112.06 62.5455 1115.43 63.3807 1118.2C64.2159 1120.98 65.4165 1123.09 66.9826 1124.53C68.5636 1125.98 70.4652 1126.7 72.6875 1126.7Z" fill="black"/>
<path d="M379.688 1131.63C376.317 1131.63 373.446 1130.71 371.074 1128.87C368.703 1127.03 366.891 1124.35 365.638 1120.84C364.385 1117.32 363.759 1113.07 363.759 1108.09C363.759 1103.14 364.385 1098.91 365.638 1095.41C366.906 1091.89 368.725 1089.2 371.097 1087.35C373.483 1085.49 376.347 1084.56 379.688 1084.56C383.028 1084.56 385.885 1085.49 388.256 1087.35C390.642 1089.2 392.462 1091.89 393.715 1095.41C394.983 1098.91 395.616 1103.14 395.616 1108.09C395.616 1113.07 394.99 1117.32 393.737 1120.84C392.484 1124.35 390.672 1127.03 388.301 1128.87C385.929 1130.71 383.058 1131.63 379.688 1131.63ZM379.688 1126.7C383.028 1126.7 385.624 1125.09 387.473 1121.87C389.322 1118.65 390.247 1114.06 390.247 1108.09C390.247 1104.12 389.822 1100.75 388.972 1097.96C388.137 1095.17 386.929 1093.04 385.348 1091.58C383.782 1090.12 381.895 1089.39 379.688 1089.39C376.376 1089.39 373.789 1091.02 371.924 1094.29C370.06 1097.54 369.128 1102.14 369.128 1108.09C369.128 1112.06 369.545 1115.43 370.381 1118.2C371.216 1120.98 372.417 1123.09 373.983 1124.53C375.564 1125.98 377.465 1126.7 379.688 1126.7Z" fill="black"/>
<path d="M292.688 1367.63C289.317 1367.63 286.446 1366.71 284.074 1364.87C281.703 1363.03 279.891 1360.35 278.638 1356.84C277.385 1353.32 276.759 1349.07 276.759 1344.09C276.759 1339.14 277.385 1334.91 278.638 1331.41C279.906 1327.89 281.725 1325.2 284.097 1323.35C286.483 1321.49 289.347 1320.56 292.688 1320.56C296.028 1320.56 298.885 1321.49 301.256 1323.35C303.642 1325.2 305.462 1327.89 306.715 1331.41C307.983 1334.91 308.616 1339.14 308.616 1344.09C308.616 1349.07 307.99 1353.32 306.737 1356.84C305.484 1360.35 303.672 1363.03 301.301 1364.87C298.929 1366.71 296.058 1367.63 292.688 1367.63ZM292.688 1362.7C296.028 1362.7 298.624 1361.09 300.473 1357.87C302.322 1354.65 303.247 1350.06 303.247 1344.09C303.247 1340.12 302.822 1336.75 301.972 1333.96C301.137 1331.17 299.929 1329.04 298.348 1327.58C296.782 1326.12 294.895 1325.39 292.688 1325.39C289.376 1325.39 286.789 1327.02 284.924 1330.29C283.06 1333.54 282.128 1338.14 282.128 1344.09C282.128 1348.06 282.545 1351.43 283.381 1354.2C284.216 1356.98 285.417 1359.09 286.983 1360.53C288.564 1361.98 290.465 1362.7 292.688 1362.7Z" fill="black"/>
<path d="M507.688 1390.63C504.317 1390.63 501.446 1389.71 499.074 1387.87C496.703 1386.03 494.891 1383.35 493.638 1379.84C492.385 1376.32 491.759 1372.07 491.759 1367.09C491.759 1362.14 492.385 1357.91 493.638 1354.41C494.906 1350.89 496.725 1348.2 499.097 1346.35C501.483 1344.49 504.347 1343.56 507.688 1343.56C511.028 1343.56 513.885 1344.49 516.256 1346.35C518.642 1348.2 520.462 1350.89 521.715 1354.41C522.983 1357.91 523.616 1362.14 523.616 1367.09C523.616 1372.07 522.99 1376.32 521.737 1379.84C520.484 1383.35 518.672 1386.03 516.301 1387.87C513.929 1389.71 511.058 1390.63 507.688 1390.63ZM507.688 1385.7C511.028 1385.7 513.624 1384.09 515.473 1380.87C517.322 1377.65 518.247 1373.06 518.247 1367.09C518.247 1363.12 517.822 1359.75 516.972 1356.96C516.137 1354.17 514.929 1352.04 513.348 1350.58C511.782 1349.12 509.895 1348.39 507.688 1348.39C504.376 1348.39 501.789 1350.02 499.924 1353.29C498.06 1356.54 497.128 1361.14 497.128 1367.09C497.128 1371.06 497.545 1374.43 498.381 1377.2C499.216 1379.98 500.417 1382.09 501.983 1383.53C503.564 1384.98 505.465 1385.7 507.688 1385.7Z" fill="black"/>
<path d="M1709.69 666.626C1706.32 666.626 1703.45 665.709 1701.07 663.875C1698.7 662.025 1696.89 659.348 1695.64 655.843C1694.38 652.323 1693.76 648.072 1693.76 643.091C1693.76 638.139 1694.38 633.911 1695.64 630.406C1696.91 626.886 1698.73 624.201 1701.1 622.352C1703.48 620.488 1706.35 619.555 1709.69 619.555C1713.03 619.555 1715.88 620.488 1718.26 622.352C1720.64 624.201 1722.46 626.886 1723.71 630.406C1724.98 633.911 1725.62 638.139 1725.62 643.091C1725.62 648.072 1724.99 652.323 1723.74 655.843C1722.48 659.348 1720.67 662.025 1718.3 663.875C1715.93 665.709 1713.06 666.626 1709.69 666.626ZM1709.69 661.705C1713.03 661.705 1715.62 660.094 1717.47 656.872C1719.32 653.651 1720.25 649.057 1720.25 643.091C1720.25 639.124 1719.82 635.745 1718.97 632.956C1718.14 630.167 1716.93 628.042 1715.35 626.58C1713.78 625.119 1711.89 624.388 1709.69 624.388C1706.38 624.388 1703.79 626.021 1701.92 629.287C1700.06 632.539 1699.13 637.14 1699.13 643.091C1699.13 647.058 1699.55 650.429 1700.38 653.203C1701.22 655.977 1702.42 658.088 1703.98 659.534C1705.56 660.981 1707.47 661.705 1709.69 661.705Z" fill="black"/>
<path d="M1238.85 131.182V177H1233.3V136.999H1233.03L1221.85 144.426V138.788L1233.3 131.182H1238.85Z" fill="black"/>
<path d="M832.851 373.182V419H827.303V378.999H827.034L815.848 386.426V380.788L827.303 373.182H832.851Z" fill="black"/>
<path d="M1678.85 378.182V424H1673.3V383.999H1673.03L1661.85 391.426V385.788L1673.3 378.182H1678.85Z" fill="black"/>
<path d="M1472.85 615.182V661H1467.3V620.999H1467.03L1455.85 628.426V622.788L1467.3 615.182H1472.85Z" fill="black"/>
<path d="M2173.25 811.182V857H2167.7V816.999H2167.43L2156.25 824.426V818.788L2167.7 811.182H2173.25Z" fill="black"/>
<path d="M1965.85 579.182V625H1960.3V584.999H1960.03L1948.85 592.426V586.788L1960.3 579.182H1965.85Z" fill="black"/>
<path d="M1330.85 862.182V908H1325.3V867.999H1325.03L1313.85 875.426V869.788L1325.3 862.182H1330.85Z" fill="black"/>
<path d="M632.851 606.182V652H627.303V611.999H627.034L615.848 619.426V613.788L627.303 606.182H632.851Z" fill="black"/>
<path d="M1014.25 606.182V652H1008.7V611.999H1008.43L997.247 619.426V613.788L1008.7 606.182H1014.25Z" fill="black"/>
<path d="M410.851 839.182V885H405.303V844.999H405.034L393.848 852.426V846.788L405.303 839.182H410.851Z" fill="black"/>
<path d="M914.851 852.182V898H909.303V857.999H909.034L897.848 865.426V859.788L909.303 852.182H914.851Z" fill="black"/>
<path d="M1206.85 1100.18V1146H1201.3V1106H1201.03L1189.85 1113.43V1107.79L1201.3 1100.18H1206.85Z" fill="black"/>
<path d="M2163.85 1546.18V1592H2158.3V1552H2158.03L2146.85 1559.43V1553.79L2158.3 1546.18H2163.85Z" fill="black"/>
<path d="M2296.85 1802.18V1848H2291.3V1808H2291.03L2279.85 1815.43V1809.79L2291.3 1802.18H2296.85Z" fill="black"/>
<path d="M2429.85 2052.18V2098H2424.3V2058H2424.03L2412.85 2065.43V2059.79L2424.3 2052.18H2429.85Z" fill="black"/>
<path d="M2562.85 2313.18V2359H2557.3V2319H2557.03L2545.85 2326.43V2320.79L2557.3 2313.18H2562.85Z" fill="black"/>
<path d="M2695.85 2575.18V2621H2690.3V2581H2690.03L2678.85 2588.43V2582.79L2690.3 2575.18H2695.85Z" fill="black"/>
<path d="M1608.85 850.182V896H1603.3V855.999H1603.03L1591.85 863.426V857.788L1603.3 850.182H1608.85Z" fill="black"/>
<path d="M1813.85 1321.18V1367H1808.3V1327H1808.03L1796.85 1334.43V1328.79L1808.3 1321.18H1813.85Z" fill="black"/>
<path d="M1851.85 846.182V892H1846.3V851.999H1846.03L1834.85 859.426V853.788L1846.3 846.182H1851.85Z" fill="black"/>
<path d="M1948.85 1079.18V1125H1943.3V1085H1943.03L1931.85 1092.43V1086.79L1943.3 1079.18H1948.85Z" fill="black"/>
<path d="M2327.85 1054.18V1100H2322.3V1060H2322.03L2310.85 1067.43V1061.79L2322.3 1054.18H2327.85Z" fill="black"/>
<path d="M1701.69 908.626C1698.32 908.626 1695.45 907.709 1693.07 905.875C1690.7 904.025 1688.89 901.348 1687.64 897.843C1686.38 894.323 1685.76 890.072 1685.76 885.091C1685.76 880.139 1686.38 875.911 1687.64 872.406C1688.91 868.886 1690.73 866.201 1693.1 864.352C1695.48 862.488 1698.35 861.555 1701.69 861.555C1705.03 861.555 1707.88 862.488 1710.26 864.352C1712.64 866.201 1714.46 868.886 1715.71 872.406C1716.98 875.911 1717.62 880.139 1717.62 885.091C1717.62 890.072 1716.99 894.323 1715.74 897.843C1714.48 901.348 1712.67 904.025 1710.3 905.875C1707.93 907.709 1705.06 908.626 1701.69 908.626ZM1701.69 903.705C1705.03 903.705 1707.62 902.094 1709.47 898.872C1711.32 895.651 1712.25 891.057 1712.25 885.091C1712.25 881.124 1711.82 877.745 1710.97 874.956C1710.14 872.167 1708.93 870.042 1707.35 868.58C1705.78 867.119 1703.89 866.388 1701.69 866.388C1698.38 866.388 1695.79 868.021 1693.92 871.287C1692.06 874.539 1691.13 879.14 1691.13 885.091C1691.13 889.058 1691.55 892.429 1692.38 895.203C1693.22 897.977 1694.42 900.088 1695.98 901.534C1697.56 902.981 1699.47 903.705 1701.69 903.705Z" fill="black"/>
<path d="M253.851 1100.18V1146H248.303V1106H248.034L236.848 1113.43V1107.79L248.303 1100.18H253.851Z" fill="black"/>
<path d="M542.851 1091.18V1137H537.303V1097H537.034L525.848 1104.43V1098.79L537.303 1091.18H542.851Z" fill="black"/>
<path d="M411.851 1350.18V1396H406.303V1356H406.034L394.848 1363.43V1357.79L406.303 1350.18H411.851Z" fill="black"/>
<path d="M639.851 1327.18V1373H634.303V1333H634.034L622.848 1340.43V1334.79L634.303 1327.18H639.851Z" fill="black"/>
<path d="M668.548 801V755.182H696.2V760.104H674.097V775.585H694.768V780.507H674.097V796.078H696.558V801H668.548Z" fill="black"/>
<path d="M1033.04 769.5V765.473C1033.04 764.25 1033.26 762.952 1033.69 761.58C1034.14 760.193 1034.78 758.858 1035.62 757.576C1036.47 756.278 1037.49 755.152 1038.68 754.197L1041.54 756.524C1040.6 757.866 1039.78 759.268 1039.08 760.73C1038.4 762.177 1038.05 763.728 1038.05 765.383V769.5H1033.04ZM1044.5 769.5V765.473C1044.5 764.25 1044.71 762.952 1045.15 761.58C1045.59 760.193 1046.23 758.858 1047.07 757.576C1047.92 756.278 1048.94 755.152 1050.13 754.197L1053 756.524C1052.06 757.866 1051.24 759.268 1050.54 760.73C1049.85 762.177 1049.51 763.728 1049.51 765.383V769.5H1044.5ZM1074.76 769.5V765.473C1074.76 764.25 1074.97 762.952 1075.4 761.58C1075.85 760.193 1076.49 758.858 1077.33 757.576C1078.18 756.278 1079.2 755.152 1080.39 754.197L1083.26 756.524C1082.32 757.866 1081.5 759.268 1080.8 760.73C1080.11 762.177 1079.77 763.728 1079.77 765.383V769.5H1074.76ZM1086.21 769.5V765.473C1086.21 764.25 1086.43 762.952 1086.86 761.58C1087.31 760.193 1087.95 758.858 1088.78 757.576C1089.63 756.278 1090.65 755.152 1091.85 754.197L1094.71 756.524C1093.77 757.866 1092.95 759.268 1092.25 760.73C1091.56 762.177 1091.22 763.728 1091.22 765.383V769.5H1086.21Z" fill="black"/>
<path d="M24.5483 1245.18H31.1705L46.7415 1283.21H47.2784L62.8494 1245.18H69.4716V1291H64.2812V1256.19H63.8338L49.5156 1291H44.5043L30.1861 1256.19H29.7386V1291H24.5483V1245.18Z" fill="black"/>
<path d="M282.169 1507.89L253.354 1522.57V1516.84L275.457 1506.19L275.278 1506.55V1505.65L275.457 1506.01L253.354 1495.36V1489.64L282.169 1504.31V1507.89Z" fill="black"/>
<path d="M500.611 1481.18H506.964L519.672 1502.57H520.209L532.916 1481.18H539.27L522.714 1508.12V1527H517.166V1508.12L500.611 1481.18Z" fill="black"/>
<path d="M236.616 1246.18H242.165V1276.52C242.165 1279.65 241.426 1282.45 239.95 1284.91C238.488 1287.35 236.423 1289.29 233.753 1290.7C231.083 1292.1 227.951 1292.81 224.357 1292.81C220.762 1292.81 217.63 1292.1 214.96 1290.7C212.29 1289.29 210.217 1287.35 208.741 1284.91C207.279 1282.45 206.548 1279.65 206.548 1276.52V1246.18H212.097V1276.07C212.097 1278.31 212.589 1280.3 213.573 1282.04C214.558 1283.77 215.96 1285.14 217.779 1286.14C219.614 1287.12 221.806 1287.62 224.357 1287.62C226.907 1287.62 229.099 1287.12 230.934 1286.14C232.768 1285.14 234.17 1283.77 235.14 1282.04C236.124 1280.3 236.616 1278.31 236.616 1276.07V1246.18Z" fill="black"/>
<path d="M380.548 1528V1482.18H396.567C399.759 1482.18 402.391 1482.73 404.464 1483.84C406.537 1484.93 408.081 1486.4 409.095 1488.24C410.109 1490.08 410.616 1492.12 410.616 1494.35C410.616 1496.32 410.266 1497.95 409.565 1499.23C408.879 1500.51 407.969 1501.53 406.836 1502.27C405.717 1503.02 404.501 1503.57 403.189 1503.93V1504.38C404.591 1504.46 406 1504.96 407.417 1505.85C408.834 1506.75 410.02 1508.03 410.974 1509.7C411.929 1511.37 412.406 1513.41 412.406 1515.83C412.406 1518.13 411.884 1520.19 410.84 1522.03C409.796 1523.86 408.148 1525.32 405.896 1526.39C403.644 1527.46 400.713 1528 397.104 1528H380.548ZM386.097 1523.08H397.104C400.728 1523.08 403.301 1522.38 404.822 1520.98C406.358 1519.56 407.126 1517.84 407.126 1515.83C407.126 1514.28 406.731 1512.85 405.941 1511.53C405.15 1510.21 404.024 1509.15 402.562 1508.36C401.101 1507.55 399.371 1507.15 397.372 1507.15H386.097V1523.08ZM386.097 1502.32H396.388C398.058 1502.32 399.565 1501.99 400.907 1501.33C402.264 1500.68 403.338 1499.75 404.129 1498.56C404.934 1497.37 405.337 1495.96 405.337 1494.35C405.337 1492.34 404.636 1490.63 403.234 1489.23C401.832 1487.81 399.609 1487.1 396.567 1487.1H386.097V1502.32Z" fill="black"/>
<path d="M641.871 1528L629.342 1482.18H634.98L644.555 1519.5H645.003L654.757 1482.18H661.021L670.776 1519.5H671.223L680.798 1482.18H686.436L673.908 1528H668.18L658.068 1491.49H657.71L647.598 1528H641.871Z" fill="black"/>
<path d="M672.548 1059V1013.18H688.03C691.609 1013.18 694.548 1013.79 696.844 1015.02C699.141 1016.22 700.842 1017.89 701.945 1020.01C703.049 1022.12 703.601 1024.53 703.601 1027.23C703.601 1029.93 703.049 1032.32 701.945 1034.41C700.842 1036.5 699.149 1038.14 696.867 1039.33C694.585 1040.51 691.669 1041.1 688.119 1041.1H675.591V1036.09H687.94C690.386 1036.09 692.355 1035.73 693.847 1035.02C695.353 1034.3 696.442 1033.29 697.113 1031.97C697.799 1030.65 698.142 1029.07 698.142 1027.23C698.142 1025.4 697.799 1023.79 697.113 1022.42C696.427 1021.05 695.331 1019.99 693.824 1019.24C692.318 1018.48 690.327 1018.1 687.851 1018.1H678.097V1059H672.548ZM694.115 1038.42L705.391 1059H698.947L687.851 1038.42H694.115Z" fill="black"/>
<path d="M1001.42 1275.5H995.869C995.541 1273.9 994.967 1272.5 994.147 1271.29C993.341 1270.09 992.357 1269.07 991.194 1268.25C990.045 1267.42 988.77 1266.79 987.368 1266.37C985.966 1265.95 984.504 1265.75 982.983 1265.75C980.209 1265.75 977.696 1266.45 975.444 1267.85C973.206 1269.25 971.424 1271.32 970.097 1274.05C968.784 1276.78 968.128 1280.12 968.128 1284.09C968.128 1288.06 968.784 1291.41 970.097 1294.14C971.424 1296.87 973.206 1298.93 975.444 1300.33C977.696 1301.74 980.209 1302.44 982.983 1302.44C984.504 1302.44 985.966 1302.23 987.368 1301.81C988.77 1301.39 990.045 1300.77 991.194 1299.95C992.357 1299.12 993.341 1298.1 994.147 1296.89C994.967 1295.66 995.541 1294.26 995.869 1292.68H1001.42C1001 1295.02 1000.24 1297.12 999.136 1298.97C998.032 1300.82 996.66 1302.39 995.019 1303.69C993.379 1304.97 991.537 1305.95 989.493 1306.62C987.465 1307.29 985.295 1307.63 982.983 1307.63C979.075 1307.63 975.6 1306.67 972.558 1304.76C969.515 1302.85 967.121 1300.14 965.376 1296.62C963.631 1293.1 962.759 1288.92 962.759 1284.09C962.759 1279.26 963.631 1275.08 965.376 1271.56C967.121 1268.04 969.515 1265.33 972.558 1263.42C975.6 1261.51 979.075 1260.56 982.983 1260.56C985.295 1260.56 987.465 1260.89 989.493 1261.56C991.537 1262.23 993.379 1263.22 995.019 1264.52C996.66 1265.8 998.032 1267.36 999.136 1269.21C1000.24 1271.05 1001 1273.14 1001.42 1275.5Z" fill="black"/>
<path d="M1923.43 1707.18L1937.03 1745.75H1937.57L1951.17 1707.18H1956.99L1940.16 1753H1934.43L1917.61 1707.18H1923.43Z" fill="black"/>
<path d="M2054.55 2009V1963.18H2060.1V1985.91H2060.63L2081.22 1963.18H2088.46L2069.22 1983.85L2088.46 2009H2081.75L2065.82 1987.7L2060.1 1994.14V2009H2054.55Z" fill="black"/>
<path d="M2190.23 2213.18L2202.05 2232.24H2202.4L2214.22 2213.18H2220.75L2206.34 2236.09L2220.75 2259H2214.22L2202.4 2240.3H2202.05L2190.23 2259H2183.7L2198.47 2236.09L2183.7 2213.18H2190.23Z" fill="black"/>
<path d="M2338.09 2474.18H2343.64V2506.93C2343.64 2509.86 2343.1 2512.34 2342.03 2514.38C2340.95 2516.43 2339.44 2517.98 2337.48 2519.04C2335.53 2520.1 2333.23 2520.63 2330.57 2520.63C2328.07 2520.63 2325.84 2520.17 2323.88 2519.26C2321.93 2518.34 2320.39 2517.02 2319.27 2515.32C2318.15 2513.62 2317.6 2511.6 2317.6 2509.26H2323.05C2323.05 2510.56 2323.37 2511.69 2324.02 2512.66C2324.67 2513.62 2325.57 2514.36 2326.7 2514.9C2327.83 2515.44 2329.12 2515.7 2330.57 2515.7C2332.17 2515.7 2333.52 2515.37 2334.64 2514.7C2335.76 2514.03 2336.61 2513.04 2337.19 2511.74C2337.79 2510.43 2338.09 2508.83 2338.09 2506.93V2474.18Z" fill="black"/>
<path d="M2452.03 2782V2777.97L2476.73 2741.1H2451.76V2736.18H2483.35V2740.21L2458.65 2777.08H2483.62V2782H2452.03Z" fill="black"/>
<path d="M2727.19 2767.68H2733.28L2738.38 2774.39L2739.72 2776.18L2747.33 2786.3H2741.24L2736.23 2779.58L2734.98 2777.88L2727.19 2767.68ZM2749.21 2759.09C2749.21 2763.92 2748.33 2768.1 2746.59 2771.62C2744.84 2775.14 2742.45 2777.85 2739.41 2779.76C2736.37 2781.67 2732.89 2782.63 2728.98 2782.63C2725.08 2782.63 2721.6 2781.67 2718.56 2779.76C2715.51 2777.85 2713.12 2775.14 2711.38 2771.62C2709.63 2768.1 2708.76 2763.92 2708.76 2759.09C2708.76 2754.26 2709.63 2750.08 2711.38 2746.56C2713.12 2743.04 2715.51 2740.33 2718.56 2738.42C2721.6 2736.51 2725.08 2735.56 2728.98 2735.56C2732.89 2735.56 2736.37 2736.51 2739.41 2738.42C2742.45 2740.33 2744.84 2743.04 2746.59 2746.56C2748.33 2750.08 2749.21 2754.26 2749.21 2759.09ZM2743.84 2759.09C2743.84 2755.12 2743.17 2751.78 2741.85 2749.05C2740.53 2746.32 2738.75 2744.25 2736.5 2742.85C2734.26 2741.45 2731.76 2740.75 2728.98 2740.75C2726.21 2740.75 2723.7 2741.45 2721.44 2742.85C2719.21 2744.25 2717.42 2746.32 2716.1 2749.05C2714.78 2751.78 2714.13 2755.12 2714.13 2759.09C2714.13 2763.06 2714.78 2766.41 2716.1 2769.14C2717.42 2771.87 2719.21 2773.93 2721.44 2775.33C2723.7 2776.74 2726.21 2777.44 2728.98 2777.44C2731.76 2777.44 2734.26 2776.74 2736.5 2775.33C2738.75 2773.93 2740.53 2771.87 2741.85 2769.14C2743.17 2766.41 2743.84 2763.06 2743.84 2759.09Z" fill="black"/>
<path d="M1471.21 1034.09C1471.21 1038.92 1470.33 1043.1 1468.59 1046.62C1466.84 1050.14 1464.45 1052.85 1461.41 1054.76C1458.37 1056.67 1454.89 1057.63 1450.98 1057.63C1447.08 1057.63 1443.6 1056.67 1440.56 1054.76C1437.51 1052.85 1435.12 1050.14 1433.38 1046.62C1431.63 1043.1 1430.76 1038.92 1430.76 1034.09C1430.76 1029.26 1431.63 1025.08 1433.38 1021.56C1435.12 1018.04 1437.51 1015.33 1440.56 1013.42C1443.6 1011.51 1447.08 1010.56 1450.98 1010.56C1454.89 1010.56 1458.37 1011.51 1461.41 1013.42C1464.45 1015.33 1466.84 1018.04 1468.59 1021.56C1470.33 1025.08 1471.21 1029.26 1471.21 1034.09ZM1465.84 1034.09C1465.84 1030.12 1465.17 1026.78 1463.85 1024.05C1462.53 1021.32 1460.75 1019.25 1458.5 1017.85C1456.26 1016.45 1453.76 1015.75 1450.98 1015.75C1448.21 1015.75 1445.7 1016.45 1443.44 1017.85C1441.21 1019.25 1439.42 1021.32 1438.1 1024.05C1436.78 1026.78 1436.13 1030.12 1436.13 1034.09C1436.13 1038.06 1436.78 1041.41 1438.1 1044.14C1439.42 1046.87 1441.21 1048.93 1443.44 1050.33C1445.7 1051.74 1448.21 1052.44 1450.98 1052.44C1453.76 1052.44 1456.26 1051.74 1458.5 1050.33C1460.75 1048.93 1462.53 1046.87 1463.85 1044.14C1465.17 1041.41 1465.84 1038.06 1465.84 1034.09Z" fill="black"/>
<path d="M1660.87 1499.5C1660.38 1497.99 1659.73 1496.64 1658.92 1495.45C1658.13 1494.24 1657.19 1493.21 1656.08 1492.36C1654.99 1491.51 1653.75 1490.86 1652.37 1490.42C1650.98 1489.97 1649.46 1489.75 1647.8 1489.75C1645.09 1489.75 1642.62 1490.45 1640.4 1491.85C1638.18 1493.25 1636.41 1495.32 1635.1 1498.05C1633.78 1500.78 1633.13 1504.12 1633.13 1508.09C1633.13 1512.06 1633.79 1515.41 1635.12 1518.14C1636.45 1520.87 1638.24 1522.93 1640.51 1524.33C1642.78 1525.74 1645.33 1526.44 1648.16 1526.44C1650.79 1526.44 1653.1 1525.88 1655.1 1524.76C1657.11 1523.62 1658.68 1522.03 1659.8 1519.97C1660.93 1517.9 1661.5 1515.46 1661.5 1512.65L1663.2 1513.01H1649.41V1508.09H1666.87V1513.01C1666.87 1516.79 1666.06 1520.07 1664.45 1522.86C1662.85 1525.65 1660.65 1527.81 1657.83 1529.34C1655.02 1530.87 1651.8 1531.63 1648.16 1531.63C1644.11 1531.63 1640.54 1530.67 1637.47 1528.76C1634.41 1526.85 1632.02 1524.14 1630.31 1520.62C1628.61 1517.1 1627.76 1512.92 1627.76 1508.09C1627.76 1504.47 1628.24 1501.21 1629.21 1498.31C1630.2 1495.41 1631.58 1492.93 1633.37 1490.89C1635.16 1488.84 1637.28 1487.28 1639.73 1486.19C1642.17 1485.1 1644.87 1484.56 1647.8 1484.56C1650.22 1484.56 1652.47 1484.92 1654.56 1485.65C1656.66 1486.37 1658.54 1487.39 1660.18 1488.72C1661.83 1490.03 1663.21 1491.6 1664.31 1493.44C1665.42 1495.26 1666.18 1497.28 1666.6 1499.5H1660.87Z" fill="black"/>
<path d="M1764.55 1523V1477.18H1780.03C1783.62 1477.18 1786.56 1477.83 1788.84 1479.13C1791.14 1480.41 1792.84 1482.15 1793.95 1484.34C1795.05 1486.53 1795.6 1488.98 1795.6 1491.68C1795.6 1494.38 1795.05 1496.83 1793.95 1499.04C1792.86 1501.25 1791.17 1503.01 1788.89 1504.32C1786.61 1505.62 1783.68 1506.27 1780.12 1506.27H1769.02V1501.34H1779.94C1782.4 1501.34 1784.38 1500.92 1785.87 1500.07C1787.36 1499.22 1788.44 1498.07 1789.11 1496.62C1789.8 1495.16 1790.14 1493.51 1790.14 1491.68C1790.14 1489.84 1789.8 1488.2 1789.11 1486.76C1788.44 1485.31 1787.35 1484.18 1785.85 1483.36C1784.34 1482.52 1782.34 1482.1 1779.85 1482.1H1770.1V1523H1764.55Z" fill="black"/>
<path d="M1939.1 1233.18V1279H1933.55V1233.18H1939.1Z" fill="black"/>
<path d="M1981.04 983.104V978.182H2015.41V983.104H2001V1024H1995.45V983.104H1981.04Z" fill="black"/>
<path d="M2305.55 1254V1208.18H2311.1V1228.59H2335.53V1208.18H2341.08V1254H2335.53V1233.51H2311.1V1254H2305.55Z" fill="black"/>
<path d="M954.605 1024.64C954.337 1022.37 953.248 1020.61 951.339 1019.36C949.43 1018.1 947.088 1017.48 944.314 1017.48C942.286 1017.48 940.511 1017.81 938.989 1018.46C937.483 1019.12 936.305 1020.02 935.455 1021.17C934.619 1022.32 934.202 1023.62 934.202 1025.08C934.202 1026.31 934.493 1027.36 935.074 1028.24C935.671 1029.1 936.431 1029.83 937.356 1030.41C938.281 1030.98 939.25 1031.44 940.265 1031.82C941.279 1032.18 942.211 1032.47 943.061 1032.69L947.714 1033.94C948.908 1034.26 950.235 1034.69 951.697 1035.24C953.173 1035.79 954.583 1036.55 955.925 1037.5C957.282 1038.44 958.401 1039.65 959.281 1041.12C960.161 1042.6 960.601 1044.41 960.601 1046.56C960.601 1049.04 959.952 1051.27 958.654 1053.27C957.372 1055.27 955.493 1056.86 953.017 1058.04C950.556 1059.22 947.565 1059.81 944.045 1059.81C940.764 1059.81 937.923 1059.28 935.522 1058.22C933.135 1057.16 931.256 1055.68 929.884 1053.79C928.527 1051.89 927.759 1049.69 927.58 1047.19H933.307C933.456 1048.92 934.038 1050.35 935.052 1051.48C936.081 1052.6 937.379 1053.44 938.945 1053.99C940.526 1054.53 942.226 1054.79 944.045 1054.79C946.163 1054.79 948.065 1054.45 949.75 1053.76C951.436 1053.06 952.771 1052.09 953.755 1050.86C954.739 1049.6 955.232 1048.14 955.232 1046.47C955.232 1044.95 954.806 1043.71 953.956 1042.76C953.106 1041.8 951.988 1041.03 950.6 1040.43C949.213 1039.83 947.714 1039.31 946.104 1038.87L940.466 1037.25C936.886 1036.23 934.053 1034.76 931.964 1032.85C929.876 1030.94 928.832 1028.44 928.832 1025.35C928.832 1022.79 929.526 1020.55 930.913 1018.64C932.315 1016.72 934.194 1015.23 936.551 1014.17C938.922 1013.09 941.57 1012.56 944.493 1012.56C947.446 1012.56 950.071 1013.08 952.368 1014.14C954.665 1015.19 956.484 1016.62 957.827 1018.44C959.184 1020.26 959.9 1022.32 959.974 1024.64H954.605Z" fill="black"/>
<path d="M1235.69 1307H1221.55V1261.18H1236.31C1240.76 1261.18 1244.56 1262.1 1247.72 1263.93C1250.89 1265.75 1253.31 1268.37 1254.99 1271.79C1256.68 1275.19 1257.52 1279.26 1257.52 1284C1257.52 1288.77 1256.67 1292.88 1254.97 1296.33C1253.27 1299.76 1250.8 1302.4 1247.54 1304.25C1244.29 1306.08 1240.34 1307 1235.69 1307ZM1227.1 1302.08H1235.33C1239.12 1302.08 1242.26 1301.35 1244.75 1299.89C1247.24 1298.42 1249.1 1296.34 1250.32 1293.64C1251.54 1290.94 1252.15 1287.73 1252.15 1284C1252.15 1280.3 1251.55 1277.12 1250.34 1274.45C1249.13 1271.76 1247.33 1269.71 1244.93 1268.27C1242.53 1266.83 1239.54 1266.1 1235.96 1266.1H1227.1V1302.08Z" fill="black"/>
<path d="M1578.09 1007.18H1583.64V1039.93C1583.64 1042.86 1583.1 1045.34 1582.03 1047.38C1580.95 1049.43 1579.44 1050.98 1577.48 1052.04C1575.53 1053.1 1573.23 1053.63 1570.57 1053.63C1568.07 1053.63 1565.84 1053.17 1563.88 1052.26C1561.93 1051.34 1560.39 1050.02 1559.27 1048.32C1558.15 1046.62 1557.6 1044.6 1557.6 1042.26H1563.05C1563.05 1043.56 1563.37 1044.69 1564.02 1045.66C1564.67 1046.62 1565.57 1047.36 1566.7 1047.9C1567.83 1048.44 1569.12 1048.7 1570.57 1048.7C1572.17 1048.7 1573.52 1048.37 1574.64 1047.7C1575.76 1047.03 1576.61 1046.04 1577.19 1044.74C1577.79 1043.43 1578.09 1041.83 1578.09 1039.93V1007.18Z" fill="black"/>
<path d="M1708.43 1046H1702.61L1719.43 1000.18H1725.16L1741.99 1046H1736.17L1722.48 1007.43H1722.12L1708.43 1046ZM1710.58 1028.1H1734.02V1033.02H1710.58V1028.1Z" fill="black"/>
<path d="M1327.88 1012.18V1058H1322.51L1297.54 1022.03H1297.1V1058H1291.55V1012.18H1296.92L1321.97 1048.25H1322.42V1012.18H1327.88Z" fill="black"/>
</svg>
